<?xml version="1.0" encoding="UTF-8"?>
<svg id="Layer_2" data-name="Layer 2" xmlns="http://www.w3.org/2000/svg" viewBox="81.84 83.95 856.30 856.30">
  <defs>
    <style>
      

      .cls-2 {
        fill: #262626;
      }
    </style>
  </defs>
  <g id="Layer_1-2" data-name="Layer 1">
    
  </g>
  <g id="Layer_2-2" data-name="Layer 2">
    <g id="Greater">
      <path class="cls-2" d="M484.23,789.07c.36-.09,1.69-.66,1.55-.98l-.6-1.36c-.14-.32-1.28.16-1.64.24l-4.27.98,1.64-3.4,2.02.45c.88-2.13,1.85-3.42,4.31-4.18l-1.15,3.59,3.09,1.9c-.28.59-1.32,2.6-1.97,3.37-1.69,2.02-4.87,2.83-7.03.41l4.06-1.02Z"/>
      <path class="cls-2" d="M276.71,639.38l-1.01-1.09-2.51,1.65-1.42-3.01.16-6.25c.02-.86,2.05-2.03,2.79-2.07l-.45,2.62,3.88.31-1.82,2.36c-.41.54,1,2.02,1.32,2.37l-.95,3.11Z"/>
      <path class="cls-2" d="M533,838.59l-2.89,1.47,1.97-3.02-2.05-1.53,3.83-.87c.31-.29.64-.62.76-.45s.62.74.65.73l-1.02.54c1.71.64,2.9,4.7,2.81,6.51-.03.7-1.6,1.67-2.33,1.86-1.11-1.29-1.49-2.87-1.73-5.25Z"/>
      <path class="cls-2" d="M345.74,388.88l-3.4.91-1.03-2.64c-.25-.65,1.27-1.97,1.98-2.2l2.07-.68c.53-.17,1.78,1.14,1.57,1.65l-1.19,2.96Z"/>
      <path class="cls-2" d="M194.43,578.29c-.31.75-1.35,2.39-2.01,2.66-.76.31-2.45.04-2.76-.3,3.91-1.22,2.18-3.98,4.54-7.06l1.83.79-1.6,3.91Z"/>
      <path class="cls-2" d="M206.51,538.1l.56-2.09c.09-.33-.41-.62-1.32-1.41.81-.18,2.91-.4,4.17-.15.94.19.62,3.46-.18,4-.68.46-3.19.07-3.23-.36Z"/>
      <path class="cls-2" d="M376.91,715.28l-2.84-3.15c1.19-1.72,2.29-2.95,4.5-3.02l-1.13,1.73c-.43.66,1.38,2.62.64,3.34l-1.16,1.12Z"/>
      <path class="cls-2" d="M410,338.76l3.4-1.48-2.53-1.17c.61-.51,2.27-1.51,3.21-1.67.57-.1,1.63,2.06,1.2,2.46l-1.85,1.7c-.33.3-1.19,1.18-1.57,1l-1.86-.83Z"/>
      <path class="cls-2" d="M431.51,325.45c-.33.96-2.45,2.25-3.46,2.8l-1.03-2.22,4.23-2.97,3.59-2.73c.53-.53.94-.46.81.19.19,1.03.41,2.06.11,2.12l-2,.41c-.27.06-1.37-.14-1.46.12l-.79,2.28Z"/>
      <path class="cls-2" d="M629.6,869.59l.7,1.34-5.44-.94-.55-3.48,3.08,1.48c.16.08,0,1.45-.18,1.43-.28-.02-.02,0,2.38.16Z"/>
      <path class="cls-2" d="M533.26,829.06c-.28,1.97-1.21,4.17-3.26,4.21l1.4-4.34c.08-.26.81-.88,1.02-1.07s.88.92.85,1.19Z"/>
      <path class="cls-2" d="M425.15,331.35l-5.05.28c-.66-.43-.51-1.69.09-1.6l4.35-1.02.6,2.35Z"/>
      <path class="cls-2" d="M390.02,715.16c.22.17-.05,1.95-.3,1.83l-1.29-.6c-1.13-.52-2.31-1.41-3.46-2.56,1.71-.14,4,.49,5.05,1.32Z"/>
      <path class="cls-2" d="M466.02,769.02c-.05,2.19-1.49,3.41-3.71,2.93l2.25-3.88c.16-.28,1.5-1.05,1.5-.72l-.04,1.67Z"/>
      <rect class="cls-2" x="671.07" y="118.85" width="4.45" height="2.07" transform="translate(-4.39 211.78) rotate(-17.82)"/>
      <path class="cls-2" d="M223.57,600.62l-1.6-.64c-.29-.12.46-1.08.76-1.17l3.14-.99-.57,2.95c-.05.27-1.47-.04-1.74-.14Z"/>
      <path class="cls-2" d="M466.56,784.43l-.33-2.01,3.8-1.92c-.21,1.73-1.44,3.24-3.47,3.93Z"/>
      <polygon class="cls-2" points="328.61 396.1 331.49 395.63 328.78 394.38 334.26 393.14 330.84 397.89 328.61 396.1"/>
      <path class="cls-2" d="M455.93,767.11c-.72,2.91-1.85,3.13-3.72,2.3l2.29-2.32,1.43.02Z"/>
      <path class="cls-2" d="M403.07,713.47c-.45-.32-1.06-.87-1.33-.85l-1.23.07.99-1.95c.2-.39,1.46.33,1.76.65l1.12,1.2c.22.24-1.03,1.07-1.3.88Z"/>
      <path class="cls-2" d="M266.3,435.49l-3.82,1.49,2.45-3.54c-.1-.15.33.49,1.37,2.06Z"/>
      <polygon class="cls-2" points="415 735.82 413.17 737.68 411.34 734.43 415 735.82"/>
      <polygon class="cls-2" points="349.21 699.4 348.65 697.02 352.22 694.31 349.21 699.4"/>
      <path class="cls-2" d="M682.68,870.97l-3.29,3.33c.13-1.51.26-4.08,3.29-3.33Z"/>
      <path class="cls-2" d="M467.2,786.18l-1.6.22c-.04-.29,0-1.5.32-1.48l1.69.11c1.1-.92,1.68-.21.83.98-.11,1.04-1.24,1.97-1.23.17Z"/>
      <path class="cls-2" d="M521.77,828.31l-4.12,3.19,1.23-2.36c.32-.61,1.77-1.01,2.89-.83Z"/>
      <polygon class="cls-2" points="455.33 765.22 452.13 766.37 454.49 763.06 455.33 765.22"/>
      <path class="cls-2" d="M353.02,695.75l2.3-2.46-.05,2.14c0,.38-.99.38-2.26.31Z"/>
      <path class="cls-2" d="M624.41,405.83l-.31,1c-.11.34-1.04,1-1.21.69l-.98-1.73,2.5.05Z"/>
      <polygon class="cls-2" points="460.18 774.44 456.9 775.31 460.19 772.67 460.18 774.44"/>
      <path class="cls-2" d="M637.31,876.93l-1.45,1.26c-.25.22-1.29-.8-1-.98l1.94-1.24c.24-.55.66.69.51.96Z"/>
      <rect class="cls-2" x="800.29" y="840.22" width="2.91" height="1.2" transform="translate(-266.39 383.81) rotate(-23.2)"/>
      <path class="cls-2" d="M221.44,526.51c.06,1.12-2.42,1.18-2.61.04-.03-.44,2.32-.48,2.61-.04Z"/>
      <path class="cls-2" d="M222.79,522.32l-3.21,1.24,1.01-1.51c.28-.43,1.77-.18,2.2.27Z"/>
      <rect class="cls-2" x="298.75" y="651.71" width="2.68" height="1.34" transform="translate(-292.88 247.36) rotate(-30.96)"/>
      <rect class="cls-2" x="325.58" y="671.51" width="2.79" height="1.23" transform="translate(-299.21 264.01) rotate(-30.96)"/>
      <path class="cls-2" d="M351.01,701.01l2.53-2.54c.18,1.34-.66,2.51-2.53,2.54Z"/>
      <g>
        <path class="cls-2" d="M600.77,187.72l.64-.6,2.03,1.91,2.86-2.86c.32-.32,1.11-1.38.77-1.6l-1.61-1.04-1.49,2.07-.8-4,1.99-1.83,3.14,6.17,1.08-1.5-1.74-3.84c-.3-.67.46-2.89,1.01-2.89l3.49,2.24c.74.47,2.41.82,3.56.98l.09-3.26-2.82-1.05,2.37-2.93c.46-.57,2.34-1.37,2.7-.73l1.86,3.32,3.78-2.2-.79-.79-1.83.32c-.37.06-.4-1.12-.13-1.37l1.52-1.42c.36-.33-.02-1.86-.15-1.8-1.02-.17-1.79-.46-1.66-.87l.62-1.97c.17-.55,2.14.22,2.49.68,2.19,2.89,5.41,2.46,5.45,2.31l.47-1.65.56-5.04c-.41-.95-.3-1.14.36-.16,1.04.64,2.26,1.04,2.76.58.6-.54.69-2.1.17-2.55-.57-.49-1.25-1.4-1.4-1.92-.35-1.25,1.93-.39,4.93-1.63,1.21-.5-1.65-4.1,1.07-5.95l2.43,2.85.59-3.76,3.07-1.53-1.91-2.19,3.03-.63,4.21-5.14c.53.71.96,1.3.75,1.54l-1.17,1.27,4.33-.37,1.76-3.42c.33-.65,1.71-1.83,2.35-2.26,2.59-3.7,5.86-6.26,10.28-8.11l4.61-2.86c.32-.2,1.63-.35,1.87-.38.81-1.48,2.14-2.09,4.19-1.73.39-.5,1.36-2.42,1.76-3.31l5.92-3.63,2.79,3.62c.15.06,1.46-.47,1.86-.88.47-.49.51-2.06.43-2.81l.19-1.09c.06-.37,1.4.06,1.7.32l3.14,2.75,1.59-1.69,5.18,1.03c3.45.69,5.24-1.61,7.4.78,1.58,1.73,2.81,5.06,2.83,7.28-4.45,5.92-.17,7.27-.43,9.33l-.51,3.97,1.52.38.96.29c.07-.52.28-2.27.56-2.82l1.77-3.45,4.46-.38,4.26,3.95c1.41,1.3,2.11,7.37-.13,9.84l2.36,4.77-1.87,10.54c-.26,1.48-1.2,2.51-2.83,3.43,2.06,6.65-3.95,9.9-3.59,10.66l.62,1.31-.7,3.86-4.21-.28.34,3.37c-1.01,1.63-1.52,5.24-.18,6.5,2.49,2.33,2.11,5.03.26,7.09-.56.62-1.08,2.04-1.21,2.71s1.3,1.91,2.4,1.82c.91-2.09,1.43-4.95,1.76-7.33l.21-1.55c.04-.3.69.67.81,1.01l1.78,4.96c.48-1.1.64-1.94.85-1.88l2.05.61c.07-.49-.34-2.38-.98-2.85l-3.52-2.56,2.02-2.89c3.84,4.4,5.61,11.83,3.54,12.19-.22.04-.99-.11-.91-.32l.6-1.54-2-.05.65,4.42c.04.26.23.8.16,1.02l-.29.85c1.45,1.7,2.46,4.25,2.19,6.46l-2.15,1.44,1.31,1.4c.32.34-.14,1.05-.69,2.27-.99.12.18-.02.48-.06,2.6-2.23,6.85-1.82,5.85-6.77-.27-1.34.39-3.01,1.2-3.85l.43-.36h-.66s-1.73.13-1.73.13l.74-1.28.52-.93.34-.97.35-1.02.36-1.05-.61-.21-1.31-.44-.12-1.25.61-.67,1.1.42.64.16.74.07,1.34.11c.17.01.17-.27.03-.37l-1.32-.85.15-3.4c-.96-1.01-2.27-2.72-2.59-3.65-.09-.25,1.06-.51,1.31-.6l.8-.28-.82-5.22c-.14-.88,1.21-2.87,1.92-2.7l3.73,5.23c.69.97,1.66,3.29,2,4.41l1.21,3.98c-.34.02.27-.01.56-.03l.77-.85.53.27-.63,1.1-4.07,3.86c1.26,1.55,1.89,2.94,1.66,4.12l-.64,3.26-2.81,3.24,1.84,1.78.84-.47c.16-.09.16-.03,1.44.11l-.72,1.04-.99.41-.95.39-.84.35-.48.58-.34-1.22-.29-.74-.75.84-.63.71c.67.68,1.78,2.17,2.11,3.15l1.43,4.23c-3.4,4.95-5.24,9.51-6.24,15.58l-1.7-.18-.91,1.79-1.63,3.2,2.2-1.33c-1.06,3.08-1.28,4.27-1.05,7.25,0-.04-.61.21-1.38.52,0,.21.05,1.6.03,1.02l1.99-.3c.22-.03.2.47.07.64-.15.18-.75.79-.97.87l-3.3,1.21c-2.53.92.27,4.13-2.4,7.96l-1.6,2.3-2.7,3.29c-.27.33-.19,1.92-.11,1.94,1.29.71,1.08.6.65.36l-1.65,1.25.28.76.45.76.73.52-1.21.53-.91.41-1.12.66.64.41c0,.46,0,1.24,0,.96l-1.83-.5c-.74-.2-2.45.73-2.49,1.52l-.29,5.27c-.07,1.35,1.06,3.34-.21,4.17-.6.39-1.9.34-2.95.29l-1.58,1.02-.62,1.67.56,4.38-2.07,1.54c-.22.16-.16,1.07.11,1.06l.93-.02c.3,0,1.27.46,1.02.62l-.91.6c-.1.07-.62.6-.7.71l-2.95,3.91c.1,1.38-.41.99-.91-.09l-1.17.16-1.24.17.68.84c.2.25.35.43.32.39l-1.47,3.92c.89.86,1.42,1.35,1.02,1.58-.57.33-1.75.86-2.22.89l-2.42.16c-.42.03-.49,1.26-.5,1.68l-.03.68c-5.01.93-3.13,5.61-7.36,7.89l-.87,8.14c-.04.4-.48,1.56-.84,1.55l-1.62-.09c-.75-.04-3.02-.2-3.03.56l-.05,3.86c.08-.11-.44.61-.6.85-3.67.86-3.57,3.78-4.19,7.23-.24,1.34-2.7,2.97-3.86,3.79l-1.38,2.51-2.16,1-1.22.57c-.23.11.43,1.1.66,1l1.74-.73c.32-.13.16,1.55-.08,1.8l-3.88,3.92c-.73.74-2.25.77-3.54.25.32,3.48-1.96,6.95-4.88,8.53-.12.81-.25,2.25-.8,2.31l-2.15.25c-.26.03-.95.6-.84.84l.42.88c.9-.12,1.08-.17,1.13-.16s-.24,1.26-.41,1.39l-2.95,2.19-2.35,2.77-3.36,1.3c-.44.17-.35,2.09.13,2.21l1.91.46c.25.06,1.4-.22,1.28.01l-.75,1.4c-.51.94-2.64-1.87-3.26-.84-.16.28-.72,1.21-.43.72l.9,1.16-2.64.72,1.08.86c.64.51.57,1.1-.13,1.7l-.69.6-.76.66-4.15-.12c-.04,2.97-4.48,6.96-5.95,7.45-2.03.67-2.47,2.77-3.39,3.78-1.81,1.99-3.82,3.62-5.08,5.8-3.22,1.47-6.19,5.22-6.63,8.41l1.79.98c.18.1-.6.79-.81.89l-2.84,1.41-2.57.99c-.41-.56-.81-1.14-.92-.85l-.45,1.19c.64.76,1.32,2.36,1.07,3.37-.18.74-1.48,1.44-2.37,1.93l-3.56,1.96.8,2.08c.08.21-1.3.64-1.52.53l-2.78-1.33c-2.02,1.22-.11,3.19-.07,5.1.01.61-.64,2.01-1.14,1.91-.39-.07-1.57-.29-1.51-.28.21-.93.45-1.87.12-1.77l-1.26.35-1.11.3c-.42.11-1.93.74-1.63,1.03l1.62,1.59-2.59,3.87-1.74,2.51-4.26.88-4.79,1.16c-.19-.71.06.24.34,1.26l-.85,2.34-.56,1.54-1.23-1.12c.04-.07-.73,1.22-1.05,1.74-.23.38.72,1.19,1.15,1.18l1.94-.05c.49-.01.21,1.78-.26,1.71l-1.63-.23c-3.8-.54-5.7,1.29-5.72,1.22l.2,1.28c.18,1.13-1.83,2.88-2.73,3.28l1.68,5.42c-1.28.68-1.34.71-.81.43-1.03-1.66-1.41.1-3.57-.35l-1.45-.3c-.28-.06.38-1.03.67-1.08l1.32-.22c.2-.03-.57-.41-.68-.59l-.41-.72-1.71-.19c-.47-.05-1.31-1.19-1.57-1.5-.5,1.77-1.35,4.32-1.35,5.68l-.02,3.5.9.82c.16.14.22.39.03.5-.18.1-1.05.41-1.26.36l-3.31-.83s-.2.23-.68.8l3.18.49c-.75,1.16-2.2,3.34-3.31,3.73l-3.93,1.38s.45.59.58.77c.11.15-.03.33-.31.84l.71,2.42-4.19-.68-.95,1.35c.3.85.47,1.27.44,1.34-.03.06-.72.38-.9.48l-.7.4.58,1.2c.11.22-.95.22-1.13.04l-.55-.56.44-1.04c.1-.23-1.01-.09-1.25.02l-2.93,1.36-2.9,2.15c-.92,6.73-4.26,4.35-7,6.88l2.32.26.14,1.53c.02.24-.55,1-.77.87-.68-.38-.31.21,1.83,1.02l-3.27,4.58-2.99-.11c-.59-.02-1.29,1.45-1.67,1.91l-.74.91c-.13.16.02.81.17.71l1.98-1.29c.33.91.61,2.83-.12,3.28l-3.13,1.95c-.65-.19-.92-.22-.96-.37l-.21-.77-.16-.56-.17-.63-.51-1.89c-.09-.31-.84-.08-1.17.08-.36.41-.51.62-.6.43l-.56-1.12-.8-1.62-1.45,2.66,1.85.24c.22.03.08.77-.12.86l-1.13.47-1.01.42c-.28.79-.6,1.88-1.16,1.85l-3.34-.12-1.92,3.36.35.88c.08.2.26.64.24.6l2.05-.44.63,1.72-.51,1.89c-.1.37.03,1.45.37,1.61l1.01.46.1,3.3c0,.22,1.04.83,1.23.71l.87-.61c.48-.34,1.97-.52,2.59-.36.57.15.26,1.87-.08,2.11-.28.87-.62,1.93-.35,1.11l2.12.88,3.16-2.11c.16-.1,1.1-.11,1.04.07l-.46,1.34c-.6,1.76,2.33,3.06,2.91,4.21l3.07,6.11c-.84,1.34-1.25,5.08,1.21,5.07,1.25,0,3.22.04,3.95.76,2.28,2.25,4.45,3.22,8.06,2.52-.12-.2.37.63.49.84-.11.63.15,1.9.55,1.96l4.6.67,3.02,2.33c.4.31,1.59.05,2.33-.42l3.65,1.89c.26,1.03.67,1.85,1.17,1.9l2.26.22c1.3,1.43,3,2.6,4.79,3.48l1.4.54-.35-1.71c-.49-1.18-.94-2.12-.67-2.8.37-.97,2.33-1.7,2.69-1.02l-1.83,1.55,1.4.28,1.16.23c.25.05-.03.97-.28,1.02l-1.43.32c-1.29.29,2.8.64,2.56,1.14l-.6,1.28-.67,1.41c-.18-.05.04.01,1.49.45,2.04,1.43-.33,4.5,3.78,5.34l.04.99c0,.14.03.94.19.93l1.54-.07c.25-.01,1.3-.13,1.4-.01l1.18,1.38,1.2,1.4,3.24,1.29c.62.25,1.8.1,3.02-.15.02-.4-.11.88-.07,1.24l.13,1.17c.89-.44,1.87-.92,1.79-.89l2.95,2.87,2.04,2.94c.34.49,1.98-.8,2.49-1.17.45-.33,1.94.07,2.19.56.85,1.7-1.18,3.33,1.27,5.41,1.06.9,1.88,1.18,3.01,1.05.81-1.48,1.11-.48.88.5.4,1.86,1.58,2.51,3.68,3.02l.95-.69.73-1.64c.1-.02.6.54.58.9l-.06,1.55,5.1,2.95,2.74-.86-.57,1.57.73.66,1.11-.23c.2-.04.94.43,1.03.62l.44.96.41.89,2.57,1.49c-.16.71-.34,1.42-.33,1.43,2.17,1.27,2.73,1.76,5.61.54l-1.26,3.29,3.61,1.41,1.74.18c.21.02.13.43.08.98l.59.74c1.11.25,1.61.39,1.94.71l1.47,1.44,3-1.85-1.41,3.01,3.67,1.6,1.44.43c.28.08.8,1.39.72,1.67l-1.14,3.69,1.8,2.56c.71.33,1.83.61,1.87,1.14l.19,2.28.61-.69.86-1.4c.11-.18.46,1.38.66,1.46l6.38,2.39c1.95.73,3.86,2.13,5.78,3.49,2.21,1.58,3.71-1.52,4.86.09l3.47-.62c.1.08.77.55.77.55.01,0,.36-.2,1.18-.68.02-.1-.02.12-.29,1.42l1.14,3.21c.03.08,1.07-.13,1.14-.08.22.17.76.76.82,1.05l.69,3.35-1.06,3,6.36,1.33c.3,1.9,1.64.76,5.57,2.36.75.31.73,2.39.11,3.51l.74,1.05,1.17.05-.67,3.1c-.1.85.05,1.49.61.4l2.26-.09v.82s-1.08,2.28-1.08,2.28l3.21-1.44.45,1.59c.06.22.55,1.1.68.92l.83-1.22c.47-.62.91-.84.55.45.45.83,1.12,1.87,1.62,2.04l5.18,1.85,1.96.7c.91.82,2.19,1.7,3.17,2.07l3.58,1.35c.62-.34,1.19-.65,1.13-.41l-.35,1.4c-.05.2-.1.97.08,1.06l2.96,1.48,1.41,6.78,6.17.36,3.28,4.83,2.76.25.4.85,1.27-.05,1.83,3.24c.42.75-.64,2.66-1.06,3.4l5.92.91c-.76,1.16-.96,1.48-.86,1.37l5.76,2.54,2.26,2.49c.27.3.77.84,1.05.85l1.35.03-.38,2.34c2.58,1.76,5.18,3.17,8.24,4.34l-.06,2.58,1.43,6.36c.78,3.49-.12,5.04-2.09,7.85l-.34,4.75c1.57.61,2.72,1.85,3.19,3.41l.53,1.75c.1.33,1.29,0,1.49-.28l2.13-2.99c.13-.18,1.14-.37,1.17-.15l.14,1.13c.06.45.03.97.29,1.09l1,.47c-1.51,3,1.98,4.59-1.96,10.99l-2.23,3.61c-2.15.6-3.33.55-5.27.11-2.28-.65-4.62-.62-6.45.51l.33,3.86c.04.47.72,1.47,1.18,1.38l2.1-.45-1.82,4.2c-.03,1.36-.31,3.03-.98,4l-1.92,2.78c.91,1.62,1.69,3.1,1.28,5.55l4.45,3.39c.31.24.43,1.4.07,1.53l-2.17.73,5.15,1.57c1.27.39,3.51.44,4.87-.18,1.19-.55.2-3.12-.71-2.76l-2.61,1.13.32-3.44c1.49-.46.73-.23-.45.14-.52.4-1.89-.14-2.34-1.15-.28-.63.61-1.47,2.13-2.46.42.02.96,1.49.51,1.42-.55,1.1-.89,1.8-.62,1.25,3.08-1.46,4.41.07,5.73,2.04l2.86.05-3.3,3.12c-.25.23-.42,1.51-.13,1.35l1.32-.74c.32-.18,1.21-1.36,1.33-1l.63,1.92c-.21.12.07-.04.62-.36l2.86-1.88.9,1.82,4.63.83-2.46,1.26,3.77,2.36,4.3,2.28.32,3.07c.05.48.52,1.51.94,1.51h1.65c-.11.19-.81,1.03-1.16,1.2l-1.45.74,5.7,1.56.88,1.95,2.4-1.46c1.72,1.02,3.65.57,6.16-.12-1.83,1.61-3.1,2.58-4.05,3.97l2.27-1.16c.38-.19,1.44-.06,1.53-.05l1.6-3.28-.26,3.96c-.08,1.21-2.09,3.86-1.06,4.81l3.84,3.52c2.38-1.97-.03-2.71,1.83-5,.24-.3,1.48.73,1.56,1.12l.59,2.89,2.92-.54c-.04.42-.25,1.39-.54,1.67l-1.27,1.24,3.1-.4-1.5,2.33,4.35-.42-2.02,2.53,1.16,1.77,5.31.49.16,2.04,4.05-1.42.85,1.46c.12.21-.49.59-1.2,1.08l.17.99c1.11-.09,1.95-.15,1.96.17s-.05.94-.26,1.19l-.95,1.17,2.37.45c.22.67.29,1.15.6,1.39l1.29,1c-3.54,1.38-5.6,3.71-5.81,7.51-.07,1.32-1.05,2.17-2.59,2.66-1.09.34-2.64,2.2-3.63,2.68l-2.71,1.31-3.65,3.19.9,6.97-4.07.81-3.27.93-.84-2.59-2.45,3.21-1.49-1.14c-.17-.13-.78.68-.95.8l-1.94,1.29.5-2.86-3.97,3.42.32-2.33-3.83-1.55-3.8.7c-.87.16-2.76-.5-3.89-.87l-2.16,1.23c-.47-2.68-1.45-4.79-3.18-6.78l-1.74-2c-.42-.48.42-2.23.94-2.59l2.33-1.62-1.57-1.49c-.22-.21.32-1.39.18-1.67l-1.36-2.68c-.64.76-1.38,1.64-1.8,1.92l-3.77,2.46c.03-.21.29-1.13.5-1.43l.82-1.14-2.52.14c1.04-2.71,1.5-4.52,1.41-7.26-.05-1.61,1.8-4.24,3.36-4.49,2.27-.36,3.61-.85,5.39-1.76l-.32,4.13c-.03.36-.33,1.69,0,1.6l1.27-.37c.25-.07.69.38.69.64l-.02,1.29,2.71-1.87c.47-.33,2.03-.39,2.91-.4l-.88,1.07c-.13.16.33,3.07,2.74,3.55l.5,2.88,2.86.62c.54.12.72,1.81.72,2.1l5.31-2.26,1.95-6.19-3.88-1.12c-.93-2.69-4.67-.98-4.58-2.24l.12-1.73-3.52-.21.25-1.64c.05-.32-.65-.78-.88-.98l1.23-.76c.21-.13-.37-.51-.61-.55l-2.54-.44-2.31,1.07.98-3.29-6.22,1.03-.66-1.97c-.71.78-1.32,1.43-1.62,1.13-.23-.22-.99-1.23-1.3-1.24l-4.26-.1-2.96,1.5,1.22-3.43-4.97,2.21-1.68,1.62c-.35-.44-1.37-1.56-1.44-1.17l-.29,1.52-.26,1.36c-.05.26-1.02-.02-.95-.27l.37-1.33-5.19-1.7,2.06-1.61-1.72-.93-1.2,2.05c-1.32.23-2.3.83-3.43,1.9l-1.55.28c-.38.07-.95.97-1.09,1.23l1.96.58c-.58.55-1.44,1.35-1.43,1.34l2.29.65.32,2.19,2.58-1.4-2.53-3.45c.34-.9,2.6-1.79,3.36-1.11,1.52,1.43,3.32,2.65,4.82,3.1l-.78,1.59c-1.49,3.06,2.51-.28,4.84-.37l1.18-.05c.26-.01.55.96.29.95l-1.68-.08c-.92-.05-2.54,1.25-2.79,2.33-.11.46,1.12,1.68,1.44,1.34l1.25-1.34c.29-.31.98-1.26,1.37-1.11l1.22.47-1.02,4.21,2.87-1.57-.57,3.27,3.14-1.76-1.25,4.62-2.69,4.09,2.04-.54c-.17,3.1-3.27,4.96-5.94,3.88,1.57-1.44,1.87-1.95,2.68-4.69l-4.54-.14.47-2.27c-.08-.07-1.08.11-1.13.36l-.32,1.55c-1.44-2.42-3.19-2.92-6.66-3.52l2.77-.86.84-1.86c-4.02.65-3.98,3.52-6.07,3.07l2-3.41-1.46.39c-.72.19-1.21-1.96-2.04-1.97l-1.13-.02c-1.06-3.42-4.79-5.28-2.45-9.59.59-1.1.52-3.22-.47-3.48-1.77-.48-3.44.64-4.71,1.63l-5.4,4.23-.14-1.85,4.04-2.82c-1.38-.16-3.53-.4-3.99.25l-1.52,2.18c-.23-.37-.59-1.14-.44-1.41l.62-1.15-.81-3.06-2-2.31c-.5-.09-1.28-.09-1.39-.47l-.55-1.86-2.98.49-.39.39c-.24.31-.84,1.18-1.26,1.17l-2.23-.03,2.23,2.75,2.33-.11-1.71,1.49c-.44.38-1.44-.49-2.12-.99-.6.13-2.34.86-2.93.56l-3.75-1.86c-.23.67-.39,1.36-.67,1.41l-1.46.26c-.93.5-1.22,3.46-.39,4.24,1.02.96,2.13,2.11,2.7,3.14,1.99,3.6,4.05,5.84,7.1,4.56l1.73-.73c.35-.15.64,1.25.89,1.54l2.18,2.57c.6.7,1.18,2.3,1.57,3.52l2.91.36-.37,2.39,5.29.45,2.51,1.48,1.04,1.69c.23.37,1.41-.09,1.8-.22l-.06,2.61c-.02.71,2.19,1.24,2.8,1.55.51,1.32,3.67,2.72,4.06,1.55l1.98-5.86,3.75,3.41c.38.34,1.09,1.36,1.16,1.81.2,1.31-2.13,1.57-2.17,3.75l-3.2.5,3.47,1.37c.44.17,2-.44,2.14.02l.69,2.37,3.16,1.25c3.66-1.68,3.24,2.87,6.98,2.44.45.71,1.82,3.4,2.93,3.8l5.85,2.11-.88-1.65-.45-3.24,3.67-1.08c.41-.12,1.89-.15,1.75.25l-.65,1.83c.27.77,2.17,1.19,4.04.98l-.11,8.53h-2c-.29-1.52-3.63-2.61-4.08-1.23-.13.41-.18,2.03-.16,2.45.03.55,1.54.53,2.3.55.43.01.85.87,1.26,1.66l1.02-.87s6.57,1.03,7.2,2.68l2.63,6.84,1.33,3.81.35,1.01c.23.66-2.28,1.64-2.17,1.99l.47,1.59.46,1.54c.09.3,1.01-.03,1.62-.17.63.37,1.64,2.59,1.01,3.2l-2.49,2.39c0,3.2-3.62,2.76-5.64,6,.19,1.43.78,2.77,1.51,3.9l-1.55.61c-.49.19-1.31.68-1.68.47l-1.49-.85c-.5,1.27-1.69,3.23-2.77,3.69l-5.64,2.39,2.08.48c-.63,1.17-1.05,2.46-1.37,3.83l-3.27.95,2.96-3.76c-2.63-1.65-3.77,4.9-8.25,1.65l-1.97,1.7-6.4-7.79-3.86-1.73c-2.39-1.07-3.91-3.58-4.51-5.69l-3.72-.89-1.78,1.2c-1.61,1.08-4.55-3.69-6.5-3.29l-3.39.68-1.21-2.1-2.69.45-1.18-2c-.15.08-.52,1.94-.2,2.41.4.59,1.39.98,2.52,1.55-.07.67-.4,2.23.25,2.49,3.07,1.22,4.24-2.9,5.59-1.48,1.02,1.08,3.41,3.52,4.01,4.89l1.85,4.31c2.39.42,3.84,1.95,4.9,4.22l3.75,2.89-3.13,3.78-4.65,4.01-4.42.71c-1.19,1.87-3.51,2.1-5.1.96.07-.52.27-1.24-.01-1.38l-1.47-.74,1.16-1.68c-.28-.32-2.09-.57-2.28-.1l-.83,2.02c-.23.56-1.23.98-1.92,1.24l-3.22,1.22-1.23-2.28c.43-.8,1.1-2.6.64-3.29s-1.81-1.64-2.61-2.19l.7-2.11c.46-1.39-3.52-1.48-5.61-3.27l-1.36,2.41-1.83,1.22,1.21-5.25-1.77,1.02c-.39.22-3.03-1.46-2.83-2.02l.96-2.72-2.52-.93-.03-2.41c0-.59-1.7-1.6-1.81-1.53l-.22,2.55c-.05.57-1.72.89-2.11.48-.56-.6-1.27-1.15-1.19-1.51l.37-1.86-1.42.14c-.3.03-.71-.9-.82-1.2l-1.54-4.33c.35-1.35.33-1.26.27-1.05l-2.18,2.69c-.58.72-2.08,1.78-2.93,2.37l-1.29-2.07c-.43-.7.71-1.25.77-3.38,0-.23-.72-.21-.94-.16l-3.7.8-.07-1.62c-.01-.31-.71-.49-1.14-.64l-2.1-2.62.11-1.17-5.57-.5,1.8-2.49-4.43.48,1.24-3.24-2.44,1.34-3.15-1.16.25-3.66c-.73,0-2.77-.48-2.4-.82s1.38-1.04,1.84-1.33c.84-.37,1.5-.66,1.17-.51-2.72-.29-3.19.16-4.38,1.85l-.89-3.11c-.79.81-2.95,1.93-4.19,1.81-.52-.05-1.89-1.39-1.5-1.73,2-1.75,4.26-.69,4.35-1.56.06-.59.22-2.15.19-1.87-1.98,1.02-2.81,1.17-4.18.9-.1.07-.9.58-.89.58s.77.46,1.33.8l-2.45.55-.56-.67-.5,1.08-1.26-.22c-.84,1.4-.93,1.48-1.16,1.24-2.03-2.16,2.73-3.33,2.48-8.15-1.23.26-2.11.56-2.45.27l-1.49-1.27-2.08.15-1.3-1.75c-.11-.14-.76-1-.76-1.01,0-.02.04-.03,1.07-.87l-.52-.65-3.01.57-.62-2.59-1.87.32-.9-.69c.85-.69,1.54-1.11,1.42-1.4l-.51-1.28c-1.26.43-2.4.82-2.37.81.06-1.71.29-3.34-.35-3.72-.93-.57-1.65-.8-3.11-1.2l-.88-2.48c-.11-.32-1.17.35-1.55.71l-.96.07c-.2-.88-.41-2.19-.9-2.15l-2.8.21.95-1.62c.33.49-.52-.77-.56-.84-3.21,1.59-4.83,2.06-7.97,1.86-2.09-.13-4.94,3.75-5.29,5.8-.46,2.69-1.91,4.21-4.43,5.27l-2.45,1.03-3.77.68-.72-.41c-1.4-.81-2.28,2.3-3.11,4.15-1.14,2.56-4.46,4.22-6.88,5.39-.76.37-2.31,1.98-3.05,1.65l-2.94-1.33c-.13-.06-1.01-.02-1.01-.03l-.18-1.07c-.08-.47-1.36-.89-1.83-.76s-.96,1.12-.81,1.59l.45,1.43c.08.26-.8-.02-1.01-.22l-3.24-3.1-1.05.35c-.53.48-2.39,1.28-3.15,1.04l-3.24-1.04c-1.66-1.57-4.06-2.5-6.11-2.92-.18-.35-.57-1.58-.93-1.51l-2,.38c-1.19.23-3.18-1.5-4.33-2.19-3.14-1.89-6.56-3.78-8.1-7.73-.89-2.27-1.85-4.83-4.68-5.42l-2.08-.44c-.19-.04-1.1-.42-1.17-.6-2.09-5.45-6.64-4.4-6.97-7.87l-3.01-2.79c-.82-.76,1.45-2.71.63-2.63l-1.34.14h-.83s-3.11-.04-3.11-.04l.08-.96,1.9-1.93-4.69-1.1,1.43-3.12-3.1-2.27c-.15-.11-1.27.41-1.28.43,0,.02-.03-.59-.05-.91l-.06-1.04c-.01-.22-.55-.48-.78-.6l-2.17-1.14c-4.93-2.58-5.48-5.2-8.07-5.13-.73.26-1,.41-1.08.21l-.47-1.24c-.07-.18-.35-.72-.54-.69l-1.41.24c0,.11.02-.31.07-1.24l-.49-1.11.02-3.16-3.77-.49,1.54-.89c.9.16,1.01.18,1,.18l.78-3.95-2.2,2.92-4.41-2.27,2.39-2.01c.18-.15.29-.96.34-1.2s-.69-.12-1.32-.03c-1.06.49-1.35.27-.68-.55l2.14-2.5-4.48.49c.05.45-.03-.29-.13-1.32-.08-.07-.76-.69-.72-.66-1.32-.35-2.62-.92-3.05-1.32.18-1.24.31-1.51.04-1.66l-1.36-.76c-.11-.06-.44-.58-.58-.8-.13-.2-.3-.39-.46-.26l-1.01.81-3.14.39.07-2.18-2.74-.78-1.21-.45c-.25-.09-.97.41-1.27.6-.98.62.28-1.68-2.44-4.08l-3.54-3.13-4.36.41-1.42-3.73c-.19-.51-1.93-.14-2.7.2l-.1-2.62-4.28-2.84c.1-1.01-.17-3-.58-4.07l.14-1.75c.03-.34-1.13.06-1.26.38l-1.15,2.69-.68-2.7c-.38-1.5-2.57-.37-4.19-2.52-.39-.53.45-1.56,1.6-2.54l-1.9-.74c-1.09-.17-1.19,1.2-2.2,2.21l-4.85-1.5c1.02-1.21.77-1.86-.89-.65-1.38-1.46-3.46-4.25-5.4-4.74s-2.41-.41-3.68-2.25l-2.62.03-1.09-2.95c-.53-1.43-3.62-2.94-5.01-2.93l-1.2.05c-.33.01-.53-1.23-.43-1.54l.43-1.27c.1-.3-.2-.54-.51-.4l-1.4.64c-.28.13-.51-.26-.85-.68l-1.85-2.58-.21,1.44-.99.71v-1.89s-2.7-3.63-2.7-3.63l.27-1.55c.04-.21-.27-1.44-.42-1.29l-1.35,1.36c-.03.93-1.04,2.09-.94.09l-4.03-2.52s1.35-.66,1.09-.91l-1.12-1.09-.95-.75c-.22-.17-.69.8-1.01,1.51l-1,.16-.71-1.21c-.91-1.54-2.93-2.84-4.43-2.8l.02-2.07c0-.38-.84-.64-1.22-.81l-.57-.53-.56-.52c-.61.01-1.43.02-1.33.02-.47-.61-.65-.84-.6-.78-1-.11-1.68-.41-1.65-.86l.16-2.83-4.83,1.56-1.19-1.7c-.25-.35-1.54.35-2.49-.79l-3.78,1.81-.48-4.13-.07-.58.5-.88-.53-1.84.11-.91c.03-.23-.24-1.1-.42-.94-.26.23-.91.95-.92,1.29l-.02,1.44.02,1.4c0,.29.07,1.21-.16,1.12l-1.16-.4-2.6-.91-2.91-.1c0-.59-.02-1.71-.3-1.61l-1.77.64c-.46.17-.99.48-.92.26l.42-1.42.37-.82c.37-.32.64-.54.56-.48l-2.43-.83.35-1.29c.06-.22.06-1.05-.14-.97l-1.78.77c-.2.09-.97.06-.91-.15l.29-1.16c.12-.47-.69-1.71-1.18-1.69l-2.43.09c-.02.11.12-.53.35-1.6l-8.56-3.74c-.11-.05-.73-1.04-.75-1.16l-.27-1.32c-.27-1.29-2.74-2.48-4.18-2.64l-1.16-2.19-.11-.7c.87-.42.95-.61-.31-.35l-1.28-1.67c-.23-.3-.49-1.2-.79-1.1l-1.78.59-2.73,1.23.42-2.77c.03-.22.56-.69.69-.87s.07-1.02-.1-.87l-.92.83-1.44,1.73c-.16.19-.73.53-.95.65s-.6-.61-.49-.84l.59-1.23c.12-.25-1.07-.65-1.11-.93l-.23-1.61-.58-4.07c-1.31,2.69-2.44,3.83-5.23,3.46l1.93-2.68c-.64-.6-2.08-1.64-2.63-1.3l-2.17,1.37-.81-.87.57-.72.58-.74c.15-.19-1.16.18-1.4.28l-.89.38c-.23.1-1.19.38-1.19.47.02-.83-1.38-2.26-.1-3.7-.56-.82-1.88-2.55-1.87-3.56v-1.25c.02-.22-.45-.79-.56-.6l-.71,1.32-.81-2.03c-.19-.47-1.74.51-2.25.74-.4.18-1.4-.13-1.94-.26l-1.92-.48c-.3-.08-1.12-.09-1.04-.28l.84-2.04-2.63,1.13c.08.15-.23-.45-.39-.75.07-.47.11-.99.27-1h1.27c-.44-.91-.81-1.7-.61-1.28-1.81.03-3.4-.18-4.1-.78l-3.84-3.32-2.69-5.43c-.6-1.21-1.87-2.04-3.2-2.52l-.93-.33v-1.39c.01-.25-.94.09-1.27.21l-.54-.82c-.16-1.28-.56-.6-.71.34l-1.34.49-1.52.56c-.45.16-.3-1.66.06-1.98l.69-.62c.22-.19.62-.52.66-.63l.44-1.07-1.22.32-.95.25-3.12.82-.61-1.02c-.13-.25-.3-.71-.37-.75l-.77-.42-3.77-1.99c-.89.11-1.38-.06.08-.99-.79-2.16-2.36-4.09-4.46-5.27-4.21-2.37-6.26.48-6.74-3.06-.05-.39-.79-1.18-1.16-1.35l-2.88-1.33c-1.25.21-2.68-.17-3.22-.77l-2.52-2.79-2.69-3.48.21-1.78c.1-.82-3.05-.81-4.2-3.19l-1.48-3.09-3.67-1.72c-.86-.4-2.82.12-4.14.41l.98-2.91c.06-.19.18-1.03.04-.92l-1.36,1.08c-2.34-1.5-5.09-2.6-8.04-3.26l1.23-1.44-5.33-.38.8-.82c.16-.16.04-.44-.09-.8-1.04-2.07-2.22-3.28-4.22-3.84l-.99-.28c-.12-.03-.61-1.08-.73-1.07l-2.04.16c-.28.02-.96.06-.94-.17l.14-1.12c.01-.08-.2-.59-.25-.65l-.62-.65c-.2-.21-.86-1.33-1-1.07s-.79,1.23-1.08,1.3l-2.41.56c-.55.31-.88.5-.45.26l-3.15-3.51c-.75-.84-1.27-1.4-2.73-2.13l-.87-1.23c-1.46.25-1.46-.04-2.48,1.92-.74.89-1.84-.93-3.95.04-.58.27.61-2.35-.19-2.25l-1.66.21c-3.24-3.88-2.34-7.2-4-7.96-.34-.16-.91-.3-.96-.57l-.27-1.41-.94-2.67c-.07-.2.71-1.2.53-1.32l-1.39-.85-2.35.32.27-1.19c.06-.28-.07-1.28-.36-1.31l-1.66-.22-2.49-5.21c-.45-.93-3.08-1.74-4.07-1.38l-2.24.81c-.46.17-1.04-.33-1.66-.57.03.01.43-.74.58-1l.92-1.57-.74-.19-4.33-.63,4.75-.2.54.61.55-2.7-1.07-1.04c-1.05.37-1.97.71-2.15.36l-.93-1.74-3.47-.6-1.77-3.1,2.8-.89c-.73-.77-1.82-1.73-1.65-2.34l.72-2.5,1.05,1.54c.04-1.59.7-4.13,1.77-4.01l1.73,1.48,1.55.18-.81,3.83c-.08.4-.44.75-1.3,1.64l1.25,3.71,2.99-4.64-1.22-1.71c1.47-2.17,3.83-4.19,6.01-5.3l.33-.34c3.42-3.52,7.85-.87,8.55-1.89l1.25-1.83c-1.01.03-2.11-.03-2-.38l.57-1.87-.82-.76c-1.38-1.28,6.34.77,8.26-2.23.45-.7.39-2.16.32-3.47l4.91-3.83c2.1-1.64,3.19-3.23,5.28-4.65l1.37-2.59-6.8,2.87c.19.67.07.23-.28-.97l-2.61,1.64c.24.13-.45-.33-.74-.36l-1.61-.18,3.07-3.04-.5-1.11c-.39-.87,2.16-1.52,2.71-6.32.18-1.6.86-3.17,1.45-4.48l1.57-3.46c-.35-2.02.44-5.3,2.73-5.8.68-.15,1.99.37,2.32.87s.14,1.79-.02,2.63l2.33-.05,2.36-3.88-.59-2.18-1.86.11c1.61-1.54,3.08-2.51,5.15-3.52l.43-3.48.51-4.12c.18-1.44-.9-3.62-2.05-4.51l-.68-2.07,1.26.36c.52.21.94.31,1.09.53l.9,1.31c.49-.1,1.86-1.44,1.56-1.92-.97-1.54-2.88-.63-2.93-1.26l-.11-1.48-1.35-1.03-.62-2.73c-.15-.66-1.43-.85-2.38-1.03.86-1.18,2.99-1.95,3.74-1.53.05.77.09,1.47.08,1.44-.01-.05,2.45-.17,3.34-2.04l1.35-2.82,1.27-2.93,2.03-.17c.43-.04.42,1.08.44,1.17,2.1-.32,3.86.09,5.16,1.08l2.39-1.02-2.18,3.5c-.4-.26.87.56,1.31.84,1.83-.44,3.79.35,4.48,1.54-.64.68-1.27,1.34-.98,1.44l1.81.59,1.03-3.61c-1.14-1.05-1.34-1.34-1.85-3.16l-4.97-1.98.96-1.49c.26-.4-.26-1.69-.35-2.21l2.49-4.58c.96-.18,2.87-.58,3.64-1.12s1.15-2.14,1.46-3.73h3.83s4.02-2.38,4.02-2.38c.77-.45,1.71-2.11,1.96-3.09l-2.67,1.22-1.71-2.3,2.54-1.9,1.13-3.02.52-4.14,3.68-1.83.34-4.67-2.54.38c.06-1.14.53-3.27,1.25-3.81l3.28-2.49,3.23,1.53c-.07.24-.52,1.82-.51,1.8l4.14-.63,1.99-.44,1.82.45c1.78.44,3.43-5.94,7.96-7.27-.22,1.66.17,2.05.76,1.44l4.12-2.35-2.72-1.12-.22-1.49c-.06-.41-1.27-.31-2.2-.42,1.68-4.5,6.59-3.32,8.93-5.5,1.56-1.46,3.33-2.15,5.6-1.53l3.12-4.06c.23-.3,1.14.47,1.1.85-.04.43-.14,1.53-.12,1.3l-2.17.26c-.6.07-.92,2.41-.62,2.23l2.91-1.4,1.1.76.86-.41,5.29.78c.69-2.42,1.99-5.14,3.91-6.1l3.64-1.82c2.24-1.12,3.8-2.4,4.4-4.93l.3-1.26c.08-.32.79.61,1.2,1.19,5.45-.29,7.1-4.12,12.47-1.31l.1-4.35c.75.39,3.42.2,3.43-.73.02-1.83-2.15-3.56-3.43-3.55-.3-.69-.35-1.13-.68-1.16l-1.91-.2,1.64-2.24c.35-.47,1.06-1.21,1.47-1.53.52-.4,2.28.33,2.36.79l.55,5.6,1.52-1.85c1.03-1.26,3.26.46,4.57-2.23l1.35.71c.48.25,1.79-1.12,1.44-1.21-.77-.74-1.49-1.99-1.06-2.34.47-.38,1.77-1.46,1.53-1.27l.56,3.37,2.21-4.62,3.95-1.4c.53.48,1.7,1.63,2.26,1.35l2.26-1.09c-.37-1.92-.3-3.91.43-4.87l1.72-2.25-.48-.33-1.63-.21,2.05-1.6c-2.04.05-3.71.03-4.89-.34l3.83-4.21c.32-.04,1.96,1.83,2.13,2.77s-.37,2.53-1,3.2l.26.38,3.57-1.84c3.58-.63,5.97-2.5,7.96-5.3,1.18-1.65,4.26-1.66,5.96-.86l3.05-4.09c.3-.4.52-1.76.87-1.88l1.54-.53c2.02-3.16,5.48-.55,5.95-3.43.43-2.68,3.66-4.17,6.37-3.78,1.09-1.37,3.12-2.68,5.17-2.56-.51-1.13-.28-3.67.73-4.17l1.15.68,1.15-.65,2.64-1.51c.54-1.91,2.57-2.49,4.15-3.6l7.59-5.32,2.35-2.75,1.05,1.07c.2.21.83-1.04.88-1.35.77-4.62,5.37-2.75,6.6-4.86l2.1-3.64.76,3.02c2.23-3.83-.14-6.64,3.5-7.57l2.77-3.31c4.21.21,8.31-2.99,8.82-6.91-1.79-.25-2.88-.14-3.63.34l.31-2.83,5.52-.75-1.26,2.58c.56.12,2.12.25,2.93.06s1.69-2.29,1.49-3.09l-1.17-4.18,2.39-.25c.5-.05.48,1.43.39,2.22l1.94-.22c.08-1.79,1.63-3.45,3.96-4.31l-.15-3.43,2.65-2.99,1.82,1.13.37-1.91c.21-1.1,4.16,1.15,4.71-.46.18-.51.57-2.12,1-1.95l1.93.78-1.96,1.06c-.45.24-.32,2.06.15,1.88l1.38-.53c.31-.12.88.45,1.07.74l1.93,2.89c1.41-2.49-1.91-4.59-.68-6.21.91-1.2,4.06-.72,5.39-.04l-.63-3.21c-1.23.8-2.55,1.46-4.46,1.73l3.87-2.85-.76-1.22c-.18-.28.28-1.03.45-1.41l.76-1.71c.19-.43,1.27.13,1.8.49l4.98-.98-.78-2.45c-.15-.48.11-2.13.6-2l1.96.49-1.05,2.83c-.33.88-1.49,2.31-2.39,2.51l-1.64.37c-.32.07.53.72.85.8l3.18.85c1.34.07,2.71.26,4.25.82l2.44-1.27-4.08-.48,2.24-2.82c.34-.43.26-1.98-.25-2.07l-2.98-.55,4.45-1.96-2.74-1.31c.29-.16,1.37-.56,1.84-.6l4.84-.45-.91-2.8c-.19-.58-1.78.2-2.95.69l.44-3.04,1.04,1.05c.2.2.88-.27,1.19-.44l1.47-.82c.35-.19.98.4,1.45.7l3.12.21,2.1,2.57c.36.44,1.25,1.25,1.64,1.54.49.36,1.47-1.38,1.26-1.95-.33-.89-.82-2.46-.79-3.21l.16-4.65,2.59-2.78c.46,1.71.89,2.77,1.98,3.36.79.43,2.79-.81,2.7-1.7-.04-.43-.73-1.91-1.17-1.9l-2,.04c-1.18-2.18.39-5.6,3.16-5.94l3.37-.41,4.89-.6-1.38,1.27,2.21,2.18,2.06-3.36-2.35.59.26-1.62c.07-.41-1.23-.62-1.67-.6l-3.9.14,1.21-2.95c.2-.48,1.22.4,1.61.75l1.51,1.33c.42.37.67-1.93,1.02-2.37.92-1.19,2.97-3.54,3.29-5.05l.59-2.87c1.7,1.53,3.57,1.95,4.42.99-.12-3.73,3.55-6.96,6.59-7.1.4-.02,1.38-.72,1.7-.63.43.12,1.19.65,1.54,1.01l2.53,2.65c.08-.36.21-1.63.3-2.94l2.06-1.72-2.87-1.91.96-3.68,2.46-2.5c1.34-1.37,4.62-.55,4.89-1.64l.53-2.09,2.98-1.24-2.14-1.43,2.36-2.3.86,2.07,4.23-1.31.68,2.01,4.8-3.95c.28-.23-.69-1.92-.66-1.82l-2.21.37c-.6.1-.89-1.71-.91-2.68l4.03-1.25c.25.91.33,1.52.71,1.52l2.33.02c.6.03.73-1.38-.14-1.25l-.53-4.15c-.06-.47,1.31-1.84,1.57-1.44.32.51.62,1.22.95,2.09l2.37,3.92c.17-3.22,1.41-6.13,4.17-7.49l-.9-1.39c-.22-.34.75-1.58,1.11-1.39l1.9.98.27,1.25,1.25-4.43-2.76.06.61-2.41c1.12.49,2.25.92,3.08,1.11l-.28-.53-.75-3.53c.38-.39,1.71-1.3,1.8-.87.12.6.37,1.53.19,1.94l-.88,2.04.41.55ZM707.63,207.66l1.27-3.04-2.54-1.4-2.77,2.91,3.19,1.2c.35.13,1.85.7.84.32ZM717.43,204.56c-1.4-.26-3.11,1.52-1.88,2.76l1.88-2.76ZM732.46,208.67l2.67.84-.1-2.46-2.07,1.26-.5.36ZM722.75,212l-.83-2.32c-.33-.08-1.68.45-1.57.89l.41,1.64.36,1.45c.07.3,1.1.14,1.3-.1s.47-1.16.33-1.57ZM509.03,432.51l1.12-2.08c.33-.62,2.21.23,2.66.81.37.01,1.67-.2,1.61-.7l-.26-2.44c-1.57-.24-3.52.41-5.03,1.52l-3,.33c2.93-2.13,4.25-2.94,4.87-6.06.2.1,1.94.62,2.3.19l2.36-2.91-1.69-3.64,2.43-1.47,4.67,1.5c.74.24,2.65-.3,3.24-.5l-2.21-.9,2.86-3.24-2.64-.5c-.57-.11-1.29,1.65-1.65,2.2-.43.65-2.34.31-3.06-.27l3.64-3.34c.61-.56,2.54-1.33,3.22-.93l2.57,1.52,3.84-3.25-4.91.29,2.95-1.84,2.75-2.35-2.99-.94c3.17-1.6,1.31-4.44,4.62-5.85l.79.34-2.47,5.59c-.19.43,1.78,1.72,2.03,1.32l.93-1.47c.17-.27.56-1.12.35-1.31l-.94-.85,3.23-.55,2.1,1.01c1.02-2.2,3.26-3.35,5.69-2.75l-.93-2.21.74-2.52,2.56-.88-3.19-.29c-.59-.05-.76-1.53-.81-2.18-.03-.45,1.08-.74,1.49-.64l3.31.86c.99-.21,1.5-.27,1.59-.69l.26-1.26c.06-.31-1.43-.2-1.74-.27l-2.16-.5c1.65-2.67,3.26-3.23,5.7-3.54l1.85-.45c.43-.11.44,1.58.35,2.01l-.33,1.56c-.27,1.29,2.7.19,2.85-5.05l3.99-1.36-.58-3.87c-1.03.57-1.11.81-2.49.5l5.13-2.67c.78-.4,2.73-.98,3.06-.98.1,1.14.11,2.24.49,2.18l2.06-.32-3.16,2.27,1.79.64,2.58-1.9.23,2.65c.41.82.6,1.57,1.12,1.62l2.09.21,1.3.13c.3.03-.27,1.09-.57,1.02-.42-.1-1.81-.26-2.02.13l-1.83,3.35-.61-.63,1.31-2.49c-3.16-.62-5.89,2.99-7.59.03l.42-1.63c.06-.24-.82-.47-.92-.25l-.58,1.3c-.34.77.05,2.64.36,3.15l2.43-.66-2.19,3.63,3.01.67c.8,1.21,1.91,1.96,3.44,1.82.14-.12.42,1.35.03,1.65l-1.4,1.08-2.73,2.1-1.77-4.82-.61-1.65c-.09-.25-1.07.09-1.12.34l-.3,1.36-4.24,4.46c-.11.65,2.38,2.02,2.37,1.48.02-2.05.28-3.37.95-3.92l.66,1.43c1.04-.12,1.59-.23,1.67.11l.35,1.41c.16.65.31,1.79.78,2.01l1.9.92-2.49.6c-.57-.99-1.95-2.08-2.18-1.53l-2.93,3.14c-.42-.09.74.16,1.73.37l-.04,1.88c0,.3-1.19.46-1.42.27l-4.49-3.57c-.31-1.8-2.52-3-3.92-2.67.27,1.08.69,2.29.26,2.39l-2,.44c-1.01.22-2.29,1.55-2.9,2.85l-2.49,1.09,1.28,2.39-3.59,2.09c.12.08-.49-.33-.66-.44-.16-.09-.01-.33.12-.5l1.49-2.01c-.69-.4-2.18-.89-2.59-.4-1.36,1.63.58,4.74-.32,4.98l-2.21.6-1.46.32c-.29.06.43.78.44.67.74,0,1.95-.02,1.87-.02l-3.84,4.33c.11.11.89.92.87.91-.01,0-.79.6-.92.73l-3.73,3.76c-2.13,1.04-3.53,2.15-4.59,4.05l-3.4,1.5-1.86,4.27,1.99,1.17-1.93,2.84c-.06.49-.02.17.13-1.11.2-.27-.29-1.71-.85-1.89-.45-.15-1.46.71-1.38.96l1.21,3.87-4.16.46-.91,4.18c.63.21-.35-.11-.91-.3l-3.35,1.22-.86-1.72,3.44.58.34-3.8,2.21-1.3c.4-.24-.57-1.67-1.08-2.4-1.35.39-3.07,1.63-4.36,2.85l-1.54.53c-.31.11.09,1.4.22,1.93.14.6-.77,1.5-1.45,2.08l-3,3.04c-.46-.56-1.49-1.51-1.84-1.17l-1.65,1.61c-.37-.13.47.16,1.09.38l3.33.31c.27.97.8,2.3,1.39,2.81l3,2.56-1.62,1.93-4.55-.96-.61-1.44c-.46.5-1.42,1.59-1.34,2.27.07.57.62,1.72,1,2.47.58,1.14.73,1.43.17.3l.24-1.95c.04-.33,1.01-.42,1.28-.21l3.35,2.61-.77,2.02c-.14.38.35.82.87,1.51l-2.4,2.79,1.15.7,3.78-2.94c.03-.14-.45-.76-.72-.77l-1.49-.04,2.4-6.17,4.34-.86,8.09-8.28,3.13-2.67,2.99-1.76c1.25-.74,2.29-3.87,2.78-5.14,1.19-.16,3.11-.57,3.71-1.22.46-.5.57-1.27.85-2.49l6.52-5.83,5.5-5.87.17-1.3c-.12.93,1.87-2.89,5-3.06.83-.7,2.34-2.38,3.03-3.33l1.93-2.66c.87-1.2,2.45-3.9,3.89-4.27,2.18-.57,3.48-2.07,3.96-4.02.53-.47,2.08-1.21,1.99-1.79l-.38-2.44c1.53.5,3.29-.16,4-2.08,1.04-2.8,3.85-1.57,5.27-5.93.3.38.81,1.06.99.86l.72-.83,2.58-2.98,2.55-3.16,2.15-.97-1.8-2.04,2.5.33.53-2.66c2.16-.39,3.37-1.62,4.87-3.29l2.05-2.29,3.32-3.32-2.71-.87,3.52-2.79,3.74-2.91c1.05-.82,2.97-2.3,3.67-3.23l-.09-2.02,1.46-1.31,1.95-3.25c1.09-1.82,2.35-2.6,4.62-3.38,2.07-.71,3.84-3.35,5.03-5.28,1.09-1.76,5.75-3.34,4.76-3.88l-1.78-.97,1.2-2.9,3.42-.5c.85-2.02,1.84-3.38,3.36-4.86l4.02-3.91,2.86-5.54-1.33-.87c-.16-.11.5-.56.69-.59l.89-.12,3.23-2.64,3.42-4.39c1.15-1.47,2.25-2.32,4.07-3.3l2.22-4.28-3.6,2.67c.08-2.12,2.01-4.37,4.07-5.37l4.39-2.13-1.17-2.15,3.78-2.92c-.37-1.42.07-3.09,1.3-3.77l3.68-2.02c.05-.89.39-2.51.8-3.28l3.28-6.26,1.98.02c.95,0,.11-4.34,3.53-6.69l1.71-5.08,2.8-3.31c2.09-.37,3.02-1.24,3.19-3.41.12-1.51,1.08-3.33,1.55-4.7,1.27-3.66,2.42-6.57,5.44-9.22,1.32-1.15,2.03-3.53,2.26-5.08l-2.39-.14,6.67-7.03,1.2-.29c.27-.06.23-1.16.17-1.08l-2.23-.17,3.8-2.49-1.18-.85c.74-.78,1.43-1.34,1.38-1.8l-.26-2.17c.69-.05,2.97-.12,3.15-.78l.59-2.12,1.45-4.98c2.56-.75,3.95-2.86,4.29-6.25-.94-.23-3.03,0-3.84.67l-1.45,1.21c-.57.47-2.1-2.76-2.66-2.52l-2,.85c1.33.46,2.09.73,2.03.7-.85,3.28,2.01,4.3.47,5.33-.42.29-1.28.73-1.23,1.04l.23,1.6-2.95,1.67.71.69c-.55,1.2-.56,1.99.17,3.53-.19.73-.97,3.01-1.7,3.72l-2.27,2.23.81.93c-1.02,1.03-1.46,1.37-1.42,1.77l.18,1.55-2.66.79-2.28-3.58c-.42-.1-1.84.44-1.86,1.02l-.08,1.98c.77-.55,1.58-1.14,1.52-1.05-.05.07.64,1.02.82,1.29l-1.97,2.04,1.81.92c.28.14-.07.94-.23,1.24l-2.63,2.08-3.08,1.88-.92-2.52s-1.47.64-2.06.89c-.54.23-.39,1.79-.47,2.37l-.69,5.1-3.78-2.44c-.78.58-1.86,2.54-1.29,3.18.49.55,1.62,1.2,2.9,1.94l-1.73,3.65c-.26,1.09-.53.88-.52-.07-.2-.83-.39-1.61-.39-1.63s-.56.42-.74.56-.05.33.17,1.11c-.03.09-1.08.27-1.12-.1l-.19-2.07-1.42,2c0,3.52-1.65,3.89-2.11,4.62.02-.03.2.61.29.89l1.77,1.82-2.52,3.03-2.17.33c.1,1.04.33,1.81-.01,2.07l-1.3.96,1.69,1.29-5.22.05c-1.23-.75-2.4-.73-4.31.32l1.44,3.51c-1.04,1-2.4,3.05-2.78,4.21l1.42,1.76c.19.23-.92,1.32-.72.96-.31-1.93-.82-1.05-1.48.05-1.11.97-.46,2.86.56,3.94l-4.85,1.22c-.64.15-2.15.13-2.45.71l-1,1.88,3.28,1.4-2.19,3.47-3.46-.09c.18-.67.65-1.69,1-1.53l1.37.63-1-3.42-2.34,1.44-1.87,4.67-1.04-1.51c.36-1.32-.03-1.22-.48-.24-1.17,1.42-1.31,2.93-.48,4.12.36.51.52.67.36.79l-.75.61s-.45-.71-.58-.9l-.68-1.03c-.14-.21-1.32.43-1.36.69l-.54,3.62-1.7.13c-.93.07-.22,2.21-3.49,4.38l-4.24,2.82,1.05.82c-.75.65-1.11,1.06-1.42.99l-1.74-.4-1.67,2.91c-4.79-.64-5.54,2.41-6.24,2.23l-1.61-.41v2.07c-.01.39,1.26.68,1.66.68h4.26c-2,1.69-4.67,1.67-7.41,1.19l-1.62,1.81-1.7-1.24-2.58,5.26,1.65.9c.23.13-2.52,1.32-2.1,1.74l1.22,1.21-3.55.68-.15-1.51c-.02-.22-1.47-.04-1.61.12l-1.77,2.15c-.41.5-1.34,2.17-.81,2.53l1.8,1.24-3.82,4.32,4.58-.77-.35-3.33,4.35-.54,1.26-3.73,1.02,3.87,1.72-1.27,2.41,4.87,2.55,2.11c-1.15.63-2.31,1.26-2.51.82l-.8-1.73-2.93,2.35.95-3.24-2.69,1.29-2.43,1.16,1.6.79.68,1.61c.16.36,1.38.17,1.74.02l2.19-.94c.36-.15.68,1.02,1,2-1.37.44-3.12.3-5.19-.22l-2.17,1.42-3.01-4.29c-.26-.37-2.07.38-1.81.74l1.03,1.43-1.11,4.1c-.11.41.46,1.92.88,1.82l1.57-.37-1.29,2.45,2.68-1.75,3.02-2.31.7-.04c-1.34,2.27-1.62,3.38-1.44,5.85-.22.11-1.58-.2-1.63-.58l-.21-1.54-4.76.33-.91-2.32-4.46.69.86,1.47c.1.18.92-.16,1.44-.32l2.79,5.74c-2.38.04-2.51-3.16-3.32-2.42l-.41.37c-.68.68-2.24,1.98-3.27,2.45-.85.39-3-1.17-3.76-1.67-1.84,5.34-6.36,5.25-5.9,6.88.7,2.43,2.81,2.13,3.42,5.15l2.46-.42c.5-.09.98,1.29.84,1.46-.98.41-1.94.73-2.09,1.21l-.79,2.52c-1.8-2.36-2.93-2.83-5.69-1.58-1.3-1.71-.17-5.9-1.33-4.85l-1.23,1.11-2.9,2.62,1.37,1.1.46,2.3-2.83.53-1.53-1.97c.33-3.06,2.39-5.09,6.04-5.88l-2.87-1.06-3.41.89.96-1.87c.14-.28-.11-1.2-.15-1.44l2.6.12,1.27.91,1.97,1.42c-.01.09.15-.98.23-1.5.05-.33-.65-.64-.86-.76.59-.39,1.45-.88,1.54-1.23l.36-1.39c.65.08,2.28.17,2.24-.33l-.15-2.03,1.18-5.15c.26-1.15.38-1.8.27-2.42-.09-.49-2.14.14-2.24.69-.33,1.83-2.8,4.4-4.99,5l-2.61,3.3c-1.11.35-1.56.8-2.33,2.09-.18,1.42-.54.89-.54-.27.57-1.91-1.39-1.3-1.25-.28,0,.9,0,2.08-.38,2.14l-1.76.3c-.68.12-1.65.36-1.96.74l-2.1,2.56-4.52,5.3-3.32,3.1c-1.06.98-1.95,1.94-2.86,3.08l-4.43,5.49c-1.06,1.31-4.44,2.64-5.66,3.36.53.93.27,2.13-.34,2.24l-3.12.54-1.56.99c-.34.21-.91.09-1.74.1-.07.13-.04,1.44.34,1.55l1.61.46.25.18,1.66-2.64c1.55,1.97-1.5,4.05-1.59,3.89l-.42-.76-.26-.37-4.99.85,1.52,1.45c.36.35-.91,1.52-1.43,1.67-3.81,1.1-2.67,2.96-5.88,4.69-.44.24-.8.95-1.18,1.66-.92,1.71-3.25,3.05-4.9,4.46l-4.85,4.14-4.2,3.69-4.95,3.63c-2.43,1.78-1.96,3.44-4.57,4.19l1.84.4-2.42,2.66-2.61,2.42.36-2.87-1.46,2.3c-.82.15-2.41.93-2.9,1.72l-1.75,2.78-2.51,3.03-1.52-.8-4.54,4.54,1.92.64-5.48,1.95c-1.11,1.76-2.4,3.11-4.04,3.99l-.26,1.98-3.4-.6.38,3.96c-3.33.73-4.55,3.23-4.9,6.72l-2.87-1.31-2.39,2.54-3.08,4.55c-.3-1.29.05-2.27,1.13-4.45-.3-.17-1.79.65-2.14,1.34l-2.83,5.56,3.59,1.25.38,1.74,1.94.57,3.21-.55,3.17-1.82c-.53-.35-1.25-.82-1.23-.86.03-.06.96-.62,1.25-.78l1.43-.8c.36-.2.21-1,.17-1.79l3.03-2.01.18-1.16c.24-1.54,4.03,1,6.15-1.19.15-.15.21-1.8,0-1.84l-1.39-.22c.01-.18.71-1.54,1.21-1.46l2.47.39-.18,2.31,2.12-2.8c.23.43.69,1.3.7,1.35,0,.03.62-.54,1.09-.96l-2.88-2.86,2.89-3.15c.24-.26,1.19-.84,1.46-.67l1.45.91c2.64-1,2.01-4.67,2.78-4.67l1.94-.02,3.38-1.62,3.1-1.49c-5.41-3.06-7.04,2.46-7.68,1.85-.15-.14-.75-.66-.77-.65,3.61-1.5.84-5.12,6.08-6.01.28.24,1.25,1.44,1.44,1.16l1.24-1.82c-.11-.17.46.67.69,1.01.29.42-.92,1.32-1.43,1.38l-1.8.25c-.34.05.72,1.35,1.04,1.28l3.52-.78-.03-1.59c0-.42,2.71-1.55,2.38-2.17l-1.19-2.2,2.31-.13.79-4.39c.85.78,1.3,1.31,1.65,1.26l1.93-.25.6,1.07c.18.32.91.48,1.23.54l.19-.45ZM714.41,217.09l1.06-3.1-.27-2.67c-1.81.89-2.04,1.96-1.6,3.39l-1.42,2.56,2.23-.18ZM566.73,219.48c.29.06.52-1.23.43-1.56s-.41-1.48-.2-.71l-1.47.61c-.28.12-.54,1.32-.25,1.37l1.49.28ZM569.97,220.49c0-.59-.48-1.07-1.07-1.07s-1.07.48-1.07,1.07.48,1.07,1.07,1.07,1.07-.48,1.07-1.07ZM726.41,223.12c.78-.48,1.7-1.65,2.65-3.23-.3-.17-1.4-.48-1.75-.25l-1.03.67-3.26,3.75,3.38-.94ZM722.31,235.44l1.23-.09c.17-.01-.32-.72-.46-.82l-.67-.5c.28-.37.81-.94.67-1.17l-.62-1.03,1.41-4.42c.2-.62-.52-2.47-.82-2.37l-2.62,2.62c-.54.54-.22,2.37-.28,3.44l-.14,2.49,1.01,4.84,1.29-3ZM710.44,228.13l-2.43-.16-.06,2.66,2.49-2.51ZM554.5,233.09c.3-.33,1.26-2.58.6-3.04l-2.22-1.53,1.62,4.56ZM552.91,234.74l.44-2.02c.04-.21-1.14-.49-1.29-.36l-2.58,2.3,3.43.08ZM694.36,259.91l1.46-1.79c.34-.42-.49-1.9-.67-2-.72.23-2.14.82-1.91,1.32l1.12,2.47ZM700.97,267.68c.58-.6,1.23-2,.76-2.15l-1.98-.64c.05.87.8,2.59,1.22,2.79ZM506.26,277.82c.28-.11,1.11-1.25.85-1.05l-3.74.79c.1.19.66,1.14.97,1.02l1.92-.75ZM646.44,285.11c-.63-.33-2.46-.85-3.08-.84-.29,0-.54,1.74-.28,1.85l2.41.99c.45.19,1.4-1.76.95-2ZM484.33,292.09l-.96-2.48-.85,2.39c-.18.5,2.29.18,1.82.09ZM626.91,304.76l-1.93-.72-1.31,2.7,3.24-1.98ZM663.99,303.46l-1.37,2.73,1.17.59,1.37-2.73-1.17-.59ZM667.44,314.46h-1.3v3.91h1.3v-3.91ZM650.79,335.13l3.8-4.35c-2.66-.5-2.52,2.96-6.16,4.89l-1.11,4.77,1.52.09c.82.05-.39-2.73,1.95-5.4ZM593.96,344.95l-3.37.87c-.41.11-1.81.47-.87.23.86-1.61,1.45-2.49,1.45-3.24,0-.89-1.04-2.68-1.29-2.62-1.81,2.65-2.15,3.18-4.27,4.79-.12.08.35,1.89,1.02,1.98l2.57.34c2.16.29,4.02.16,4.77-2.34ZM644.15,346.92c.45,0,.42-1.39-.02-1.53s-1.28.25-1.68.69l-2.88,3.24,1.58.66c1.12.47-.13-3.04,2.99-3.06ZM585.88,350.36c.09-.08-.31-1.85-.81-1.98l-1.96-.51-.31-1.19c-.05-.21-.45-.21-.58-.05l-.82,1.07c-.19.25-.53,1.14-.25,1.3l1.52.86-1.07,2.49,4.26-1.99ZM636.01,357.66l1.1-4.91c-1.18.71-2.06,1.33-2.14,1.91s.34,1.49,1.05,3ZM584.88,354.69l-.94-1.74-1.96,4.16,2.9-2.42ZM591.83,355.15l1.7-1.18-4.53,1.23,2.48.25.34-.29ZM568.68,381.54l-2.59-.37-.25-1.27c-.05-.26-.82-.32-1.41-.35l1.08,3.87,3.16-1.87ZM537.34,382.5c.81-.99.03-1.08-.81-.65-.59.17-1.56.38-1.56.65l-.02,1.69,2.4-1.7ZM533.35,386.31c-1.74-1.7-6.58.17-5.88,2.66l5.88-2.66ZM551.85,391.64c.43-1.23.81-1.89.63-2.3l-.65-1.45-.92,2.78.94.98ZM635.65,388.14l-.68,1.49c-.13.28,1.18.32,1.29.04l.47-1.2c.07-.18-.99-.52-1.07-.33ZM520.06,397.87l3.43-2.14c.55-.34,1.39-1.35,1.77-1.91l2.11-3.13-2.47-.61c-.16.63-.17,1.33-.49,1.5l-1.67.9c-.12.55-.23,2.14-.82,2.16l-2.48.09-.75,2.23c-1.44-.23-2.84.03-3.27.79-.34.6.31,2.52.83,2.61l3.82-2.49ZM599.34,397.22c1.76-.63,2.52-1.86,2.34-3.29-1.52.61-2.59,2-2.34,3.29ZM548.97,396.84c.19.03.99-.11.99-.31l.02-.76-1.72-.36c-.32-.07-.79,1.23-.46,1.27l1.17.16ZM592.42,407.06l1.77-2.24c.31-.39-1.05-1.65-1.52-1.5l-1.35.43,1.09,3.31ZM507.54,407.71l-2.27-3.52c-.22.18-.91,1.2-.81,1.59l.33,1.21.96,2c.26.54,2.14-.72,1.78-1.28ZM315.68,409.18c.62-.19,1.92-1.84,2.16-2.27l-2.48.93-5.31,1.27c-.65.15-1.33.96-1.78,2.35l7.41-2.28ZM499.66,415.13l1.72.05,2.67-3.95-1.51-3.18-1.73,3.18,1.82.24-2.97,3.66ZM451.88,457.07c.79-.45,1.43-2.83,1.69-3.71,4.95-1.5,3.81-5.92,6.36-2.95l1.45-4.44,1.27,1.11,3.26-5.86c1.75.04,2.06.59.51,1.52l.87.75c.26.23,1.57-.21,1.47-.54l-.52-1.66c-.1-.32.63-.96.89-1.19.16-.14.59.78.79,1.14.99-.36,3.51-1.51,3.72-2.64l.6-3.22,3.76.49,5.03-6.35,2.06-2.59-.11,3.09.64.37,1.17-3.77c-.26-.29-.96-1.77-.54-1.94l1.81-.74,2.09-3.23c6.94,1.09,5.52-3.38,8.87-5.08l.98-2.7-3.26-.59,1.1,2.13c.19.37-.41,1.45-.54,1.59l-2.15-1.67.34-2.25c-.55.63-1.26,1.51-1.59,1.67l-4.46,2.13,5.3.23.7,2.16-.79.85c-.2.22-2.37-1.17-3.03-.86-.4.19-1.02.84-1.45,1.28l-.85.88c-.44.45-2.13-1.77-2.28-1.01l-.28,1.37c-.07.35.37,1.88.03,1.75-2.38-.89-1.48-2.59-2.45-2.19-.25.1-1.26.76-1.17,1.01l1.15,3.2-5.01,1.63c-2,.65-4.31.9-5.5,3.23-.97,1.9-4.25,2.05-4.8,5.69,1.12-.06,1.87-.1,1.83-.1-.56.85-1.14,1.79-1.5,1.6l-1.77-.9-6.35,4.22c-2.27,4.24-6.04,4.69-7.91,8.05l2.76-1.23c.25.16.21,1.92-.35,2.09l-2.39.74c-.58.18-2.09.22-2.53.15l-5.71,2.81c.16,1.7.05,4.35-.63,5.56l3.65,1.06,3.79-2.13ZM529.52,417.77c0-.56-.46-1.02-1.02-1.02s-1.02.46-1.02,1.02.46,1.02,1.02,1.02,1.02-.46,1.02-1.02ZM509.77,433.03l-.51.29-2.3,1.89-.79-.72c-1.26,2.37-1.19,3.84.31,5.07l-.32-2.74,4.32-3.19-.71-.61ZM504.92,435.87l-2.75.29c-.45.05.13,2.08.61,2.5l2.14-2.79ZM279.15,457.61c.51-.47,1.18-1.7.73-1.88l-1.65-.68.92,2.57ZM482.03,473.32l-2.09,2.52c-.15.18.07,1.51.26,1.36l1.09-.91c.91-.44,1.76-.42.56,1.09-.1.14,1.35.96,1.61.67l.67-1.65,4.85-.2c1.41-.16,3.91-1.8,4.85-2.89l4.51-5.19c.86-.99,3.32-2.33,3.81-3.5l1.45-3.45-2.66.16-.39-2.49c-.22-1.42-3.85-.33-6.39-3.2l-4.03,6.3-2.91-4.07-2.14-.16,1.54,1.94-.64,4.74-1.15-1.09c-.2-.19-.87.34-1.13.41l-1.47-.1c-.35-.02-1.36,1.07-1.07,1.21l1.65.81c.33.16.74.78.62,1.08l-.95,1.86c-.25.5-1.78.45-2.46.56-2.29.37-2.57,4.3-.81,5.53l2.84-1.32ZM273.4,457.54l-2.44-.92c-.06-.59.13,1.16.18,1.7s1.56.87,1.76.4.83-1.96.5-1.17ZM477.88,464.43l-.9-.08-2.3,2.29,2.01-.15c.39-.03.58-.72,1.19-2.06ZM470.31,470.69c-1.3-1.26-1.3-1.5-.97-1.57l1.59-.33c.34-.07,1.6,0,1.6-.35v-1.18c-.01-.38-.21-1.2-.33-1.62-.08-.28-.92.33-.96.61l-.24,1.65c-.04.28-1.49-.44-1.74-.3-1.04.6-2.5,2.46-2.94,3.71l4-.63ZM475.43,478.15c1.29-1.9,1.28-2.03,1.34-3.58l-2.74,2.31c.86,1.07,1.42,1.66,1.4,1.27ZM482.38,482.26c2.22-.01,4.6.29,4.6-.95v-2.68s-4.29,2.05-4.29,2.05c-.38.18-1.82.33-1.76.74l.26,2c-.54.55-.42.43,1.18-1.16ZM539.8,486.82c1.87-.03,2.71-1.21,2.53-2.54l-2.53,2.54ZM537.46,487.73c-.37-.21-1.94.32-2,.72l-.23,1.75,2.14-.07c.6-.02.63-2.1.09-2.4ZM256.26,507.22l1.64-2.64c-.96-.59-2.45-1.17-3.26-1.04-.3.05-.66,1.63-.36,1.54l1.56-.46-1.86,3.84c.65-.16,2.02-.83,2.29-1.25ZM253.36,503.96h-1.76s.37,2.96.37,2.96l1.4-2.96ZM251.55,510.41l-.87-4.62-2.19,2.22-.1,2.09,3.17.31ZM252.47,512.7c.82-.49,1.86-1.06,1.6-1.31l-1.11-1.07c-.26-.25-.86,1.03-.83,1.14.34,1.22.41,1.49.34,1.23ZM297.02,537.38c.53-.31.72-2.16.38-1.94l-3.15-.39,3.62-3.59-4.91-.18-4.33,2.18,1.62,5.04c1.1-.29,2.38-1.41,3.17-2.5,1.27,1.21,2.38,2.09,3.6,1.38ZM302.99,537.32c.6-.77,1.04-1.36,1.04-1.84s-.44-1.07-1.04-1.84v3.68ZM227.53,535.67c-.69-.66-1.79-1.41-2.41-1.27-.5.11-1.11.65-1.88,1.33l4.29-.06ZM227.61,539.64l-.57-2.64-.94,2.92c-.1.34,1.41-.07,1.51-.28ZM209.56,542.5l-.5.11-.48,1.27c-.06.16.31-.06.46-.03l.9.18c.46.42.96.91,1.13.67l.55-.78c.12-.17-.54-.72-.73-.8l-1.34-.62ZM717.63,713.11c.01-.33-.96-1.23-1.03-.95l-.34,1.34-.48,1.91c.36.09,1.75.23,1.77-.19l.09-2.1ZM715.31,756.57l3.22-1.02c-1.02-1.72-.92-1.55-.68-1.12l-2.54,2.14ZM669.19,764.09l3.67-.54c.64-.09,1.78-.81,2.16-1.32.98-1.32-2.79-2.19-1.05-5.34l-5.5,1.83c-.74.25-2.57.2-2.79,1.29-.15.77.46,2.05,1.13,2.95.11.35.09,1.47.46,1.41l1.91-.27ZM736.13,770.21l1.79-1.07c1.54-.92-2.93-1.82-5.24-4.75l-2.62-3.32-.8,3.09c1.15,1.13,1.21,3.05.85,4.35-.29,1.02,1.37,2.83,2.31,2.84s2.72-.64,3.72-1.14ZM679.67,764.12l3.87-.03c.14-.36-1.25-2.25-2.12-2.05l-3.5.8c-.4.22,1.07,1.29,1.76,1.28ZM698.14,784.84l-6.49-9.68,3.61-.99-2.65-2.26-.23-1.84c-.05-.43-1.81-.55-2.25-.48-5.18.9-6.18-2.8-8.53-.51l4.44,3.15.39,1.63-3.12-.11c.82,1.25,2.03,2.09,3.54,2.82,1.31,2.01,3.74,3.32,6.36,3.51-.17,1,.15,3.02.94,4.03.52.68,1.68.95,4,.72ZM744.46,771.25c-.06-.86-1.52-1.18-1.83-.63l-.87,1.55c1.34-.07,2.72-.45,2.69-.92ZM772.65,792.55l-.83-.91-3.48,2.67-1.58-1.9c.09-.63.28-2.45.03-3.16l-1.64-4.72c-1.83.53-3.93.78-5.67.6l-3.74-.4,1.37-2.8c-2.55-1.25-3.14.84-4.79.45.05-1.01.16-2.03-.31-2.13l-2.17-.48c-1.06-.24-2.01-1.95-2.7-3.86-2.77,1.24-3.06,3.66-5.13,5.01l-3.43,2.25,2.36,3.11,2.41-.79c.01.11.3,1.39.82,1.46l2.64.39c1.9,5.22,4.85,4.76,7,7.98.29-.28,2.27-1.21,3.06-.82l3.38,1.68c1.21-1.37,3.04-1.98,3.85-1.35l1.98,1.55c.42.33,1.71-.57,2.19-.89l4.37-2.91ZM720.77,783.44c.7.8,2.44,1.5,2.57.9l.42-1.91c.28-1.25-3.2.41-5.02-.81l-2.07.73,1.4,2.43,2.7-1.34ZM730.03,784.91c.12-.43.49-1.75.43-1.52l-3.03.08c-.96.02-2.53.55-2.86,1.51,2.01,1.17,5.25.7,5.46-.06ZM735.43,784.46c.15-.24.36-1.45.11-1.32l-1.09.57-1.12,2.66.86.07,1.24-1.99ZM708.91,795.16l2.43-2.7-3.53-1.44c-1.59-1.37-2.47-2.51-4.98-2.16l2.58,3.33c.6.93,2.59,3.15,3.5,2.96ZM716.11,791.87l.87-2.61-2.51.77,1.65,1.83ZM724.64,790.66c-.98-.69-2.93-.91-3.77.25.89.54,2.53.54,3.5.3l.27-.54ZM738.94,795.48l-4.63.9c1.89,1.47,3.46,1.14,4.63-.9ZM772.9,809.11l2.1-.11c.5-.03.38-.88-.18-1.94l-1.92,2.05ZM799.33,821.28c.63-.52,2.1-.64,3.02-.36.49.15,1.37-.98.99-1.32-.29-.25-1.37-1.03-1.76-1l-4.48.38,1.52,1.71-1.22.62c-.24.12.44,1.19.65,1.02l1.28-1.05ZM802.19,827.28c.81-.62,1.09-.93,1.3-.76l1.15.96c.41-.62.89-2.47.29-3.04l-1.35-1.27c-.25-.23.66-.96.95-1.17l.97-.7c.18-.13-.92-1.07-1.06-.91l-2.66,3.05-.56-1.93c-1.61,1.79-1.66,3.41-.69,5.11-.02.33-.12,1.01.14.96l1.53-.32ZM795.62,830.45c2.01-.07,2.81-1.32,2.52-2.24-1.43.71-2.31,1.42-2.52,2.24ZM778.14,847.06l-1.49-3.55-2.79,2.18,4.28,1.37ZM702.88,859.26l2.92-4.71-3.33,2.73-2.6,1.95,3.02.03ZM789.65,872.04l-1.15.15-1.85,2.85c1.43.09,2.65-1.1,3.01-2.99ZM728.92,875.46l-3.7-.57.73,1.42,2.97-.85ZM743.56,893.38l-1.58-.14c-.41-.04-.39,1.21-.31,1.61.05.27.95.4,1.07.17l.83-1.63ZM747.39,896.91l-2.01-.32c-.4-.06-.82,1.46-.42,1.54l1.91.42c.26.06,1.16-.3,1.43-.41s-.63-1.18-.91-1.23Z"/>
        <path class="cls-2" d="M484.14,476.4c-1.03-1.97-1.24-4.11-2.11-3.08l.36-1.32,2.69.35,1.76-4.1,1.96,2.07-.72,1.66c-.23.72-1,2.01-1.56,2.48l-2.38,1.94Z"/>
        <path class="cls-2" d="M775.07,837.85l.11-2.68c.02-.45-1.2-.73-1.71-1.17l-3.05-2.61-4.09-2.36c-.29-.17,1.09-1.41,1.36-1.28.84.41,2.32-.2,3.03-1.54l3.14,1.32c.56-.07,1.5.06.06.66l2.26,4.39,1.2,2.69-2.31,2.59Z"/>
        <path class="cls-2" d="M270.98,440.02l2.4-8.32-3.13,3.37-1.29-2.36-1.57.74c-.31.15-1.15-.65-.96-.93s.72-.89,1-1.09l2.08-1.47,3.8.16,2.02-2.34-.58,4.58.33.95c.08.24-.33.72-.72,1.29l2.02,2.3-1.63.8c-.35.17-.25.67-.24,1.8l-3.53.52Z"/>
        <path class="cls-2" d="M371.15,370.54c-3.16.33-2.98,3.83-8.43,3.98l1.04-1.61c.22-.34-.17-.78-.78-1.58l1.96-2.42,2.75-.69c2.63-.66,4.8-1.2,7.2-.73-.96,2.23-1.78,2.85-3.74,3.06Z"/>
        <path class="cls-2" d="M442.15,317.02c-2.18.74-1.93,3.89-6.22,3.62,2.54-2.48,4.52-3.15,5.04-6.3l4.2-2.32c.06,1.1.03,2.72-.2,3.49-.21.72-1.81,1.16-2.82,1.51Z"/>
        <path class="cls-2" d="M287.6,420.34l.51-1.64.67-2.18c.16-.53,1.84-.21,2.65.15.88.39,1.3,2.68.8,3.87-.37.89-1.95,1.56-2.96,1.89l-.14-2.04c-.02-.33-.77-.15-1.53-.05Z"/>
        <polygon class="cls-2" points="394.76 355 389.53 354.23 390.07 352.63 393.93 351.7 394.76 355"/>
        <path class="cls-2" d="M399.53,348.7c-1.45,2.69-3.67,2.41-5.43,2.03l1.79-3.23,3.64,1.19Z"/>
        <polygon class="cls-2" points="324.91 398.97 328.48 400.92 322.41 400.59 323.52 397.29 327.38 397.9 324.91 398.97"/>
        <polygon class="cls-2" points="410.34 342.68 405.53 344.02 406.87 341.03 410.34 342.68"/>
        <path class="cls-2" d="M463.28,304.01c.95-.35-.55.2-.85.31-.38.14-.9-.17-1.57-.46l-.97-.07c-.33-.02-.06-1.13.18-1.37.31-.31,1.19-1.2,1.01-1.01l2.2,2.6Z"/>
        <path class="cls-2" d="M767.38,826.82c-.34.04-1.49-.4-.08-.54l1.99-3.26,1.41,1.45-3.31,2.35Z"/>
        <path class="cls-2" d="M738.77,808.34c-.73-.05-2.25-.36-2.07-.79l.84-2.01c.18-.44,1.72.59,1.8,1.06.06.36-.22,1.77-.58,1.75Z"/>
        <path class="cls-2" d="M219.9,531.02l-.71,1.95c-.1.28-1.08.17-2.2.08l2.52-2.86c.4.84.55,1.17.39.82Z"/>
        <path class="cls-2" d="M298.9,413.09c.28-.23,2.04-.41,1.89-.07l-.6,1.36c-.14.33-1.11.34-1.56.38-.36.03,0-1.44.27-1.67Z"/>
        <path class="cls-2" d="M393.37,355.23l-.91,2.26-1.35-.85c-.2-.13-.25-.52-.04-.59l2.3-.81Z"/>
        <path class="cls-2" d="M697.06,223.21c-.33-.3-1.23-.95-1.33-.66l-.53,1.48c-.12.32.74,1.5,1.02,1.29l.85-.66c.19-.14.12-.24,0-1.45ZM654.83,285.52v-1.77s-3.28,2.64-3.28,2.64l3.28-.87ZM639.38,301.16c-1.63.16-1.42-.43-.62-.87.37-.53.81-1.23.54-1.42l-.79-.56s-1.54,1.48-1.29,3.18l.49,3.34c1.1-1.17,1.74-2.64,1.69-3.66ZM626.66,317.29l1.07-2.52c.15-.37-1.51-.72-1.66-.35l-.67,1.6,1.26,1.27ZM629.87,318.27c.47-.34,1.46-1.15,1.21-1.41s-1.17-1.19-.84-.86l-2.86,1.96c-.49.33-.58,1.93-.2,2.36.31.36,1.74.4,1.92-.04l.78-2.02ZM618.47,323.03l-1.31,2.4,3.9-1.79c-.03-.61-.29-2.42-.67-3.11l-2.23-4.05-1.41,2.37,1.76,1.11c-.89,1.79-2.58,2.7-5.58,2.41l.11.94,5.41-.29ZM610.62,331.42c.27-.46,1.14-1.79.72-2l-1.76-.88.97-2.39c-.53.03-1.88,1.33-1.82,1.92l.22,2.35c.06.63.18,2,.39,2.52.16.42,1.01.76,1.37.89l.28-1.56c.03-.15-.44-.71-.36-.84ZM616.21,337.02l1.1-2.71-4.24-2.12c-.33-.16-1.31,1.19-1.01,1.4l1.02.74,3.13,2.69ZM593.32,362.33l-.92-4.37-1.78,2.5,2.7,1.87ZM588.15,363.19l-4.27-1.57.62,3.08,3.64-1.51ZM591.19,368.8c.54-.19.64-2.37.27-2.55-2.31.87-4.05,2.29-5.01,4.21l4.74-1.66ZM564.39,369.93l-1.44,1.06c.06-.04-1.84-2.83-1.98-1.92-.04.28-.15,1.02-.15,1l1.65,2.1,2.1-.74c.27-.09-.12-1.5-.18-1.51ZM578.79,376.61l-3.26-3.38-2.38,3.63,5.64-.25ZM571.7,379.01c.23.35,1.13-1.76.72-1.79l-1.97-.14,1.25,1.93ZM577.37,379.74c1.34-.07,3.6-1.41,3.65-2.75l-2.63.73-1.99.42c-.35.07.5,1.63.97,1.61ZM549.02,382.88c-.29.19-.88,1.3-.56,1.4l1.55.48c.33.1.17-1.27.07-1.6-.07-.22-.87-.41-1.06-.28ZM534.57,394.24l.42.76c.09.16,3.14-1.92,1.59-3.89l-1.66,2.64-.35.48ZM543.23,395.03l-.85-.27-.98-.55c-.24-.13-1.19.4-1.37.62l-2.65,3.37,1.54,2.06c.21-4.7,4.89-5.06,4.31-5.24ZM546.2,410.56c.36.1,1.81-1.42,1.81-2.04l.02-3.09-3.06,2.37,1.23,2.77ZM549.1,414.8c1-1.04,1.55-2.39,1.67-4.07-1.01,1.02-1.58,2.39-1.67,4.07ZM537.75,423.29c.18-1.22-.46-3.28-1.32-3.91-.73-.53-2.1-.61-3.19-.58l2.57,1.78,1.94,2.72ZM524.69,430.23c.71-.45,1.38-.76,1.22-1.12-.19-.43-.7-1.42-1-1.16l-1.15,1.02-.08,1.12c-.02.23.84.18,1.01.13ZM499.84,433.12c-1.41-.67-2.51-.73-2.66-.28l-.86,2.64,3.51-2.36ZM512.07,450.43c.31-.29,1.06-1,1.17-1.19l1.92-3.73-3.64,1.93.56,3Z"/>
        <path class="cls-2" d="M451.88,457.07l-3.79,2.13-3.65-1.06c.68-1.21.79-3.85.63-5.56l5.71-2.81c.45.07,1.95.03,2.53-.15l2.39-.74c.56-.17.6-1.93.35-2.09l-2.76,1.23c1.87-3.36,5.64-3.81,7.91-8.05l6.35-4.22,1.77.9c.36.18.94-.76,1.5-1.6.04,0-.71.04-1.83.1.55-3.63,3.83-3.78,4.8-5.69,1.19-2.33,3.49-2.58,5.5-3.23l5.01-1.63-1.15-3.2c-.09-.26.92-.91,1.17-1.01.97-.4.06,1.3,2.45,2.19.34.13-.1-1.39-.03-1.75l.28-1.37c.16-.75,1.84,1.47,2.28,1.01l.85-.88c.43-.44,1.05-1.09,1.45-1.28.66-.31,2.83,1.07,3.03.86l.79-.85-.7-2.16-5.3-.23,4.46-2.13c.34-.16,1.04-1.04,1.59-1.67l-.34,2.25,2.15,1.67c.13-.14.73-1.21.54-1.59l-1.1-2.13,3.26.59-.98,2.7c-3.35,1.7-1.93,6.17-8.87,5.08l-2.09,3.23-1.81.74c-.42.17.28,1.64.54,1.94l-1.17,3.77-.64-.37.11-3.09-2.06,2.59-5.03,6.35-3.76-.49-.6,3.22c-.21,1.13-2.73,2.29-3.72,2.64-.2-.36-.63-1.28-.79-1.14-.25.23-.99.88-.89,1.19l.52,1.66c.1.33-1.21.77-1.47.54l-.87-.75c1.55-.93,1.24-1.48-.51-1.52l-3.26,5.86-1.27-1.11-1.45,4.44c-2.55-2.97-1.4,1.45-6.36,2.95-.26.88-.89,3.26-1.69,3.71ZM446.91,456.32l4.32-3.76c-1.22.09-2.63.55-3.66,1.21l-1.5.97c-.31.2.59,1.34.84,1.58Z"/>
        <path class="cls-2" d="M772.65,792.55l-4.37,2.91c-.48.32-1.77,1.22-2.19.89l-1.98-1.55c-.81-.64-2.64-.02-3.85,1.35l-3.38-1.68c-.79-.39-2.77.54-3.06.82-2.15-3.22-5.1-2.77-7-7.98l-2.64-.39c-.52-.08-.8-1.35-.82-1.46l-2.41.79-2.36-3.11,3.43-2.25c2.07-1.36,2.36-3.77,5.13-5.01.7,1.92,1.64,3.63,2.7,3.86l2.17.48c.47.11.36,1.13.31,2.13,1.65.39,2.24-1.7,4.79-.45l-1.37,2.8,3.74.4c1.74.18,3.83-.07,5.67-.6l1.64,4.72c.25.71.05,2.53-.03,3.16l1.58,1.9,3.48-2.67.83.91Z"/>
        <path class="cls-2" d="M484.14,476.4l2.38-1.94c.57-.46,1.33-1.76,1.56-2.48l.72-1.66-1.96-2.07-1.76,4.1-2.69-.35-.36,1.32-2.84,1.32c-1.76-1.24-1.48-5.17.81-5.53.68-.11,2.21-.06,2.46-.56l.95-1.86c.12-.3-.29-.92-.62-1.08l-1.65-.81c-.29-.14.73-1.23,1.07-1.21l1.47.1c.26-.07.93-.6,1.13-.41l1.15,1.09.64-4.74-1.54-1.94,2.14.16,2.91,4.07,4.03-6.3c2.54,2.87,6.17,1.78,6.39,3.2l.39,2.49,2.66-.16-1.45,3.45c-.49,1.17-2.95,2.51-3.81,3.5l-4.51,5.19c-.95,1.09-3.44,2.73-4.85,2.89l-4.85.2ZM496.42,461.69c-.34-.39-1.39-1.19-1.99-1.33l-2.28-.55c.4,1.63,2.11,2.65,3.6,2.58l.68-.7ZM496.61,462.35l-.37.25-.39,2.46c1.32.83,1.84.41,1.16-.76.42-.49,1.25-1.28.9-1.42l-1.3-.53ZM491.89,471.49l-.15-2.93.2-4.02-4.38.29c1.23,1.16,1.8,1.47,1.77,1.91l-.13,2.21,2.69,2.52Z"/>
        <path class="cls-2" d="M484.14,476.4l-.67,1.65c-.25.29-1.7-.53-1.61-.67,1.2-1.51.35-1.54-.56-1.09l-1.09.91c-.19.15-.41-1.18-.26-1.36l2.09-2.52c.86-1.04,1.08,1.11,2.11,3.08Z"/>
        <path class="cls-2" d="M698.14,784.84c-2.31.23-3.47-.04-4-.72-.79-1.02-1.1-3.03-.94-4.03-2.62-.19-5.05-1.5-6.36-3.51-1.51-.73-2.72-1.56-3.54-2.82l3.12.11-.39-1.63-4.44-3.15c2.35-2.29,3.35,1.42,8.53.51.43-.08,2.19.04,2.25.48l.23,1.84,2.65,2.26-3.61.99,6.49,9.68Z"/>
        <path class="cls-2" d="M669.19,764.09l-1.91.27c-.37.05-.36-1.06-.46-1.41-.67-.9-1.28-2.17-1.13-2.95.22-1.09,2.05-1.04,2.79-1.29l5.5-1.83c-1.74,3.15,2.03,4.02,1.05,5.34-.38.51-1.52,1.23-2.16,1.32l-3.67.54Z"/>
        <path class="cls-2" d="M736.13,770.21c-1,.5-2.79,1.16-3.72,1.14s-2.59-1.82-2.31-2.84c.37-1.3.3-3.22-.85-4.35l.8-3.09,2.62,3.32c2.31,2.93,6.78,3.82,5.24,4.75l-1.79,1.07Z"/>
        <path class="cls-2" d="M297.02,537.38c-1.22.71-2.33-.16-3.6-1.38-.79,1.1-2.06,2.21-3.17,2.5l-1.62-5.04,4.33-2.18,4.91.18-3.62,3.59,3.15.39c.34-.22.15,1.63-.38,1.94Z"/>
        <path class="cls-2" d="M520.06,397.87l-3.82,2.49c-.52-.08-1.16-2.01-.83-2.61.43-.76,1.82-1.03,3.27-.79l.75-2.23,2.48-.09c.59-.02.7-1.62.82-2.16l1.67-.9c.32-.17.33-.87.49-1.5l2.47.61-2.11,3.13c-.38.56-1.22,1.57-1.77,1.91l-3.43,2.14Z"/>
        <path class="cls-2" d="M722.31,235.44l-1.29,3-1.01-4.84.14-2.49c.06-1.08-.26-2.9.28-3.44l2.62-2.62c.3-.1,1.02,1.75.82,2.37l-1.41,4.42.62,1.03c.14.23-.4.8-.67,1.17l.67.5c.14.1.63.81.46.82l-1.23.09Z"/>
        <path class="cls-2" d="M593.96,344.95c-.75,2.5-2.61,2.63-4.77,2.34l-2.57-.34c-.66-.09-1.14-1.9-1.02-1.98,2.12-1.61,2.47-2.14,4.27-4.79.25-.05,1.29,1.73,1.29,2.62,0,.76-.59,1.63-1.45,3.24-.94.24.46-.12.87-.23l3.37-.87Z"/>
        <path class="cls-2" d="M802.19,827.28l-1.53.32c-.25.05-.16-.63-.14-.96-.97-1.7-.92-3.33.69-5.11l.56,1.93,2.66-3.05c.14-.16,1.24.78,1.06.91l-.97.7c-.29.21-1.19.94-.95,1.17l1.35,1.27c.6.56.13,2.42-.29,3.04l-1.15-.96c-.2-.17-.49.14-1.3.76Z"/>
        <path class="cls-2" d="M708.91,795.16c-.91.18-2.9-2.03-3.5-2.96l-2.58-3.33c2.51-.35,3.38.79,4.98,2.16l3.53,1.44-2.43,2.7Z"/>
        <path class="cls-2" d="M720.77,783.44l-2.7,1.34-1.4-2.43,2.07-.73c1.82,1.22,5.29-.44,5.02.81l-.42,1.91c-.13.6-1.87-.1-2.57-.9Z"/>
        <path class="cls-2" d="M482.38,482.26c-1.6,1.59-1.72,1.71-1.18,1.16l-.26-2c-.05-.41,1.38-.56,1.76-.74l4.29-2.05v2.68c0,1.24-2.39.94-4.61.95Z"/>
        <path class="cls-2" d="M650.79,335.13c-2.33,2.67-1.13,5.45-1.95,5.4l-1.52-.09,1.11-4.77c3.64-1.92,3.5-5.39,6.16-4.89l-3.8,4.35Z"/>
        <path class="cls-2" d="M585.88,350.36l-4.26,1.99,1.07-2.49-1.52-.86c-.28-.16.06-1.05.25-1.3l.82-1.07c.13-.16.52-.16.58.05l.31,1.19,1.96.51c.5.13.9,1.9.81,1.98Z"/>
        <path class="cls-2" d="M470.31,470.69l-4,.63c.44-1.25,1.9-3.11,2.94-3.71.25-.14,1.7.58,1.74.3l.24-1.65c.04-.29.88-.9.96-.61.12.42.32,1.24.32,1.62v1.18c.01.34-1.25.28-1.59.35l-1.59.33c-.33.07-.34.31.97,1.57Z"/>
        <path class="cls-2" d="M315.68,409.18l-7.41,2.28c.45-1.39,1.14-2.19,1.78-2.35l5.31-1.27,2.48-.93c-.24.43-1.54,2.08-2.16,2.27Z"/>
        <path class="cls-2" d="M707.63,207.66c1.01.38-.49-.19-.84-.32l-3.19-1.2,2.77-2.91,2.54,1.4-1.27,3.04Z"/>
        <path class="cls-2" d="M799.33,821.28l-1.28,1.05c-.21.17-.88-.9-.65-1.02l1.22-.62-1.52-1.71,4.48-.38c.4-.03,1.48.74,1.76,1,.38.34-.5,1.47-.99,1.32-.92-.28-2.39-.16-3.02.36Z"/>
        <path class="cls-2" d="M730.03,784.91c-.21.77-3.45,1.23-5.46.06.33-.96,1.9-1.48,2.86-1.51l3.03-.08c.06-.22-.31,1.09-.43,1.52Z"/>
        <path class="cls-2" d="M256.26,507.22c-.26.42-1.64,1.09-2.29,1.25l1.86-3.84-1.56.46c-.3.09.06-1.49.36-1.54.81-.13,2.3.45,3.26,1.04l-1.64,2.64Z"/>
        <path class="cls-2" d="M714.41,217.09l-2.23.18,1.42-2.56c-.44-1.43-.21-2.5,1.6-3.39l.27,2.67-1.06,3.1Z"/>
        <polygon class="cls-2" points="251.55 510.41 248.38 510.1 248.48 508.01 250.67 505.79 251.55 510.41"/>
        <path class="cls-2" d="M507.54,407.71c.36.56-1.52,1.81-1.78,1.28l-.96-2-.33-1.21c-.1-.38.59-1.4.81-1.59l2.27,3.52Z"/>
        <path class="cls-2" d="M726.41,223.12l-3.38.94,3.26-3.75,1.03-.67c.35-.23,1.45.08,1.75.25-.95,1.59-1.87,2.75-2.65,3.23Z"/>
        <path class="cls-2" d="M533.35,386.31l-5.88,2.66c-.7-2.49,4.14-4.35,5.88-2.66Z"/>
        <polygon class="cls-2" points="702.88 859.26 699.86 859.23 702.47 857.28 705.8 854.55 702.88 859.26"/>
        <path class="cls-2" d="M679.67,764.12c-.68,0-2.16-1.06-1.76-1.28l3.5-.8c.87-.2,2.26,1.7,2.12,2.05l-3.87.03Z"/>
        <path class="cls-2" d="M568.68,381.54l-3.16,1.87-1.08-3.87c.58.04,1.35.09,1.41.35l.25,1.27,2.59.37Z"/>
        <path class="cls-2" d="M722.75,212c.15.41-.13,1.34-.33,1.57s-1.22.39-1.3.1l-.36-1.45-.41-1.64c-.11-.44,1.24-.97,1.57-.89l.83,2.32Z"/>
        <polygon class="cls-2" points="778.14 847.06 773.87 845.69 776.66 843.51 778.14 847.06"/>
        <path class="cls-2" d="M646.44,285.11c.46.24-.5,2.19-.95,2l-2.41-.99c-.26-.11-.01-1.85.28-1.85.62,0,2.45.51,3.08.84Z"/>
        <polygon class="cls-2" points="499.66 415.13 502.63 411.47 500.82 411.24 502.55 408.06 504.05 411.24 501.38 415.19 499.66 415.13"/>
        <path class="cls-2" d="M592.42,407.06l-1.09-3.31,1.35-.43c.47-.15,1.82,1.11,1.52,1.5l-1.77,2.24Z"/>
        <path class="cls-2" d="M636.01,357.66c-.71-1.51-1.13-2.42-1.05-3s.96-1.2,2.14-1.91l-1.1,4.91Z"/>
        <path class="cls-2" d="M694.36,259.91l-1.12-2.47c-.22-.5,1.19-1.08,1.91-1.32.18.1,1.01,1.58.67,2l-1.46,1.79Z"/>
        <path class="cls-2" d="M537.46,487.73c.53.29.51,2.38-.09,2.4l-2.14.07.23-1.75c.05-.39,1.62-.92,2-.72Z"/>
        <rect class="cls-2" x="666.14" y="314.46" width="1.3" height="3.91"/>
        <path class="cls-2" d="M747.39,896.91c.28.05,1.18,1.12.91,1.23s-1.16.47-1.43.41l-1.91-.42c-.4-.09.02-1.61.42-1.54l2.01.32Z"/>
        <path class="cls-2" d="M738.94,795.48c-1.17,2.04-2.74,2.37-4.63.9l4.63-.9Z"/>
        <path class="cls-2" d="M475.43,478.15c.03.39-.53-.2-1.4-1.27l2.74-2.31c-.06,1.55-.06,1.69-1.34,3.58Z"/>
        <path class="cls-2" d="M789.65,872.04c-.35,1.9-1.57,3.09-3.01,2.99l1.85-2.85,1.15-.15Z"/>
        <path class="cls-2" d="M599.34,397.22c-.25-1.29.82-2.68,2.34-3.29.18,1.43-.59,2.65-2.34,3.29Z"/>
        <path class="cls-2" d="M552.91,234.74l-3.43-.08,2.58-2.3c.15-.13,1.33.15,1.29.36l-.44,2.02Z"/>
        <path class="cls-2" d="M554.5,233.09l-1.62-4.56,2.22,1.53c.66.45-.3,2.71-.6,3.04Z"/>
        <path class="cls-2" d="M504.92,435.87l-2.14,2.79c-.48-.42-1.06-2.46-.61-2.5l2.75-.29Z"/>
        <path class="cls-2" d="M717.63,713.11l-.09,2.1c-.02.43-1.4.28-1.77.19l.48-1.91.34-1.34c.07-.28,1.04.62,1.03.95Z"/>
        <path class="cls-2" d="M273.4,457.54c.33-.79-.3.7-.5,1.17s-1.71.11-1.76-.4c-.06-.53-.25-2.29-.18-1.7l2.44.92Z"/>
        <path class="cls-2" d="M227.53,535.67l-4.29.06c.77-.68,1.38-1.23,1.88-1.33.62-.13,1.72.61,2.41,1.27Z"/>
        <path class="cls-2" d="M537.34,382.5l-2.4,1.7.02-1.69c0-.28.97-.48,1.56-.65.85-.43,1.62-.34.81.65Z"/>
        <path class="cls-2" d="M477.88,464.43c-.61,1.34-.81,2.03-1.19,2.06l-2.01.15,2.3-2.29.9.08Z"/>
        <path class="cls-2" d="M551.85,391.64l-.94-.98.92-2.78.65,1.45c.18.41-.19,1.07-.63,2.3Z"/>
        <path class="cls-2" d="M700.97,267.68c-.42-.2-1.17-1.91-1.22-2.79l1.98.64c.46.15-.18,1.55-.76,2.15Z"/>
        <path class="cls-2" d="M566.73,219.48l-1.49-.28c-.3-.06-.04-1.26.25-1.37l1.47-.61c-.21-.77.11.39.2.71s-.14,1.61-.43,1.56Z"/>
        <polygon class="cls-2" points="710.44 228.13 707.95 230.63 708.01 227.97 710.44 228.13"/>
        <polygon class="cls-2" points="716.11 791.87 714.46 790.04 716.98 789.27 716.11 791.87"/>
        <path class="cls-2" d="M795.62,830.45c.2-.82,1.09-1.52,2.52-2.24.29.92-.5,2.16-2.52,2.24Z"/>
        <polygon class="cls-2" points="584.88 354.69 581.98 357.11 583.94 352.95 584.88 354.69"/>
        <path class="cls-2" d="M644.15,346.92c-3.13.02-1.87,3.52-2.99,3.06l-1.58-.66,2.88-3.24c.39-.44,1.24-.83,1.68-.69s.47,1.52.02,1.53Z"/>
        <path class="cls-2" d="M744.46,771.25c.03.47-1.35.86-2.69.92l.87-1.55c.31-.55,1.77-.23,1.83.63Z"/>
        <path class="cls-2" d="M735.43,784.46l-1.24,1.99-.86-.07,1.12-2.66,1.09-.57c.25-.13.05,1.07-.11,1.32Z"/>
        <rect class="cls-2" x="662.36" y="304.46" width="3.06" height="1.31" transform="translate(94.08 762.47) rotate(-63.43)"/>
        <polygon class="cls-2" points="626.91 304.76 623.67 306.74 624.98 304.04 626.91 304.76"/>
        <circle class="cls-2" cx="528.5" cy="417.77" r="1.02"/>
        <path class="cls-2" d="M484.33,292.09c.47.09-2,.41-1.82-.09l.85-2.39.96,2.48Z"/>
        <path class="cls-2" d="M717.43,204.56l-1.88,2.76c-1.24-1.24.48-3.02,1.88-2.76Z"/>
        <polygon class="cls-2" points="728.92 875.46 725.95 876.3 725.22 874.88 728.92 875.46"/>
        <circle class="cls-2" cx="568.9" cy="220.49" r="1.07"/>
        <path class="cls-2" d="M252.47,512.7c.07.26,0-.01-.34-1.23-.04-.11.57-1.39.83-1.14l1.11,1.07c.26.25-.77.82-1.6,1.31Z"/>
        <path class="cls-2" d="M506.26,277.82l-1.92.75c-.31.12-.87-.83-.97-1.02l3.74-.79c.25-.2-.57.94-.85,1.05Z"/>
        <path class="cls-2" d="M227.61,539.64c-.1.22-1.61.63-1.51.28l.94-2.92.57,2.64Z"/>
        <path class="cls-2" d="M302.99,537.32v-3.68c.6.77,1.04,1.36,1.04,1.84s-.44,1.07-1.04,1.84Z"/>
        <path class="cls-2" d="M548.97,396.84l-1.17-.16c-.33-.04.14-1.34.46-1.27l1.72.36-.02.76c0,.2-.8.34-.99.31Z"/>
        <path class="cls-2" d="M772.9,809.11l1.92-2.05c.56,1.05.68,1.91.18,1.94l-2.1.11Z"/>
        <polygon class="cls-2" points="253.36 503.96 251.96 506.93 251.6 503.97 253.36 503.96"/>
        <path class="cls-2" d="M635.65,388.14c.08-.18,1.14.15,1.07.33l-.47,1.2c-.11.29-1.42.24-1.29-.04l.68-1.49Z"/>
        <path class="cls-2" d="M539.8,486.82l2.53-2.54c.18,1.34-.66,2.51-2.53,2.54Z"/>
        <path class="cls-2" d="M743.56,893.38l-.83,1.63c-.12.24-1.02.1-1.07-.17-.08-.4-.1-1.65.31-1.61l1.58.14Z"/>
        <path class="cls-2" d="M279.15,457.61l-.92-2.57,1.65.68c.44.18-.23,1.41-.73,1.88Z"/>
        <path class="cls-2" d="M715.31,756.57l2.54-2.14c-.24-.43-.34-.6.68,1.12l-3.22,1.02Z"/>
        <path class="cls-2" d="M618.47,323.03l-5.41.29-.11-.94c3,.29,4.69-.62,5.58-2.41l-1.76-1.11,1.41-2.37,2.23,4.05c.38.69.64,2.5.67,3.11l-3.9,1.79,1.31-2.4Z"/>
        <path class="cls-2" d="M610.62,331.42c-.08.14.39.69.36.84l-.28,1.56c-.36-.14-1.21-.48-1.37-.89-.2-.52-.33-1.89-.39-2.52l-.22-2.35c-.06-.6,1.29-1.89,1.82-1.92l-.97,2.39,1.76.88c.42.21-.45,1.55-.72,2Z"/>
        <path class="cls-2" d="M616.21,337.02l-3.13-2.69-1.02-.74c-.3-.22.68-1.57,1.01-1.4l4.24,2.12-1.1,2.71Z"/>
        <path class="cls-2" d="M543.23,395.03c.58.18-4.09.54-4.31,5.24l-1.54-2.06,2.65-3.37c.18-.22,1.13-.76,1.37-.62l.98.55.85.27Z"/>
        <path class="cls-2" d="M629.87,318.27l-.78,2.02c-.17.44-1.61.4-1.92.04-.37-.44-.29-2.03.2-2.36l2.86-1.96c-.33-.33.59.6.84.86s-.73,1.07-1.21,1.41Z"/>
        <path class="cls-2" d="M591.19,368.8l-4.74,1.66c.96-1.93,2.7-3.34,5.01-4.21.36.18.26,2.37-.27,2.55Z"/>
        <polygon class="cls-2" points="578.79 376.61 573.14 376.86 575.52 373.23 578.79 376.61"/>
        <path class="cls-2" d="M546.2,410.56l-1.23-2.77,3.06-2.37-.02,3.09c0,.63-1.45,2.15-1.81,2.04Z"/>
        <path class="cls-2" d="M639.38,301.16c.06,1.03-.58,2.49-1.69,3.66l-.49-3.34c-.25-1.7,1.31-3.17,1.29-3.18l.79.56c.27.19-.17.89-.54,1.42-.79.44-1.01,1.04.62.87Z"/>
        <path class="cls-2" d="M512.07,450.43l-.56-3,3.64-1.93-1.92,3.73c-.1.2-.86.91-1.17,1.19Z"/>
        <path class="cls-2" d="M577.37,379.74c-.47.03-1.32-1.54-.97-1.61l1.99-.42,2.63-.73c-.05,1.34-2.31,2.68-3.65,2.75Z"/>
        <path class="cls-2" d="M537.75,423.29l-1.94-2.72-2.57-1.78c1.09-.03,2.46.05,3.19.58.86.63,1.49,2.69,1.32,3.91Z"/>
        <polygon class="cls-2" points="588.15 363.19 584.51 364.7 583.88 361.62 588.15 363.19"/>
        <polygon class="cls-2" points="593.32 362.33 590.62 360.46 592.4 357.96 593.32 362.33"/>
        <path class="cls-2" d="M564.39,369.93c.06.01.45,1.41.18,1.51l-2.1.74-1.65-2.1s.11-.72.15-1c.14-.91,2.04,1.87,1.98,1.92l1.44-1.06Z"/>
        <path class="cls-2" d="M499.84,433.12l-3.51,2.36.86-2.64c.15-.45,1.25-.39,2.66.28Z"/>
        <path class="cls-2" d="M524.69,430.23c-.18.05-1.03.09-1.01-.13l.08-1.12,1.15-1.02c.29-.26.81.74,1,1.16.16.36-.51.67-1.22,1.12Z"/>
        <path class="cls-2" d="M626.66,317.29l-1.26-1.27.67-1.6c.16-.37,1.82-.02,1.66.35l-1.07,2.52Z"/>
        <polygon class="cls-2" points="654.83 285.52 651.55 286.39 654.84 283.75 654.83 285.52"/>
        <path class="cls-2" d="M549.1,414.8c.09-1.68.65-3.04,1.67-4.07-.12,1.68-.67,3.03-1.67,4.07Z"/>
        <path class="cls-2" d="M549.02,382.88c.19-.13.99.07,1.06.28.11.33.26,1.7-.07,1.6l-1.55-.48c-.32-.1.27-1.21.56-1.4Z"/>
        <path class="cls-2" d="M571.7,379.01l-1.25-1.93,1.97.14c.41.03-.49,2.14-.72,1.79Z"/>
        <path class="cls-2" d="M446.91,456.32c-.25-.24-1.15-1.38-.84-1.58l1.5-.97c1.03-.66,2.44-1.12,3.66-1.21l-4.32,3.76Z"/>
        <path class="cls-2" d="M491.89,471.49l-2.69-2.52.13-2.21c.03-.44-.55-.75-1.77-1.91l4.38-.29-.2,4.02.15,2.93Z"/>
        <path class="cls-2" d="M495.75,462.39c-1.48.07-3.19-.95-3.6-2.58l2.28.55c.6.14,1.65.94,1.99,1.33l.18.66,1.3.53c.35.14-.48.93-.9,1.42.67,1.17.16,1.59-1.16.76l.39-2.46-.49-.21Z"/>
        <path class="cls-2" d="M697.06,223.21c.13,1.21.2,1.3,0,1.45l-.85.66c-.28.21-1.13-.96-1.02-1.29l.53-1.48c.1-.28,1,.36,1.33.66Z"/>
      </g>
    </g>
  </g>
</svg>